<svg width="105" height="30" viewBox="0 0 105 30" fill="none" xmlns="http://www.w3.org/2000/svg"><path d="M54.182 20.506c0-.605.509-1.102 1.119-1.102h14.394v-7.23H55.301a1.11 1.11 0 0 1-1.119-1.101V8.64c0-.606.509-1.103 1.119-1.103h17.942V.05h-27.6a1.11 1.11 0 0 0-1.118 1.102V29.96h9.657v-9.454zM19.894 8.63c0-.606.508-1.103 1.118-1.103h10.003c.61 0 1.118.497 1.118 1.103v21.33h9.658V1.152c0-.606-.509-1.102-1.119-1.102H11.355c-.61 0-1.118.496-1.118 1.102V29.96h9.657V8.63zm71.017.198c.823.864 1.24 2.423 1.24 4.687v2.711l-8.173-5.084-3.843 5.988 8.54 5.233-.214.08H70.224v7.507h18.684c3.995 0 6.974-.645 8.935-1.926l-.02-.02L101.157 30 105 24.121l-3.507-2.155v.02-11.43c0-3.734-.946-6.425-2.836-8.073C96.787.824 93.462 0 88.684 0H75.601v7.507H86.5c2.124.02 3.598.457 4.412 1.321zM7.624 22.453H0v7.537h7.624v-7.537z" fill="#FF6B02"/></svg>