<svg xmlns="http://www.w3.org/2000/svg" xmlns:xlink="http://www.w3.org/1999/xlink" width="1226.492" height="974.682" viewBox="0 0 1226.492 974.682">
  <defs>
    <linearGradient id="linear-gradient" x1="0.095" y1="-0.018" x2="1.174" y2="2.023" gradientUnits="objectBoundingBox">
      <stop offset="0" stop-color="#e7f3fe"/>
      <stop offset="0.441" stop-color="#eff7fe"/>
      <stop offset="1" stop-color="#fff"/>
    </linearGradient>
    <linearGradient id="linear-gradient-2" x1="0.376" y1="0.61" x2="0.826" y2="0.213" gradientUnits="objectBoundingBox">
      <stop offset="0" stop-color="#fa5db1"/>
      <stop offset="1" stop-color="#febfbf"/>
    </linearGradient>
    <linearGradient id="linear-gradient-3" x1="0.089" y1="0.787" x2="0.959" y2="0.266" xlink:href="#linear-gradient-2"/>
    <linearGradient id="linear-gradient-4" x1="0.626" y1="0.118" x2="0.357" y2="0.931" xlink:href="#linear-gradient-2"/>
    <linearGradient id="linear-gradient-5" x1="0.362" y1="0.304" x2="0.772" y2="0.857" gradientUnits="objectBoundingBox">
      <stop offset="0" stop-color="#d1e8ff"/>
      <stop offset="1" stop-color="#eaefff"/>
    </linearGradient>
    <linearGradient id="linear-gradient-6" x1="0.751" y1="0.574" x2="-0.129" y2="0.313" gradientUnits="objectBoundingBox">
      <stop offset="0" stop-color="#6d6afe"/>
      <stop offset="1" stop-color="#3fb0f7"/>
    </linearGradient>
    <linearGradient id="linear-gradient-7" x1="0.662" y1="0.089" x2="0.488" y2="0.799" gradientUnits="objectBoundingBox">
      <stop offset="0" stop-color="#d870ac"/>
      <stop offset="1" stop-color="#58469c"/>
    </linearGradient>
    <linearGradient id="linear-gradient-8" x1="0.599" y1="0.729" x2="0.358" y2="0.192" gradientUnits="objectBoundingBox">
      <stop offset="0" stop-color="#a77ef7"/>
      <stop offset="1" stop-color="#5e65d6"/>
    </linearGradient>
    <linearGradient id="linear-gradient-9" x1="0.604" y1="0.089" x2="0.429" y2="0.8" xlink:href="#linear-gradient-7"/>
    <linearGradient id="linear-gradient-10" x1="0.369" y1="0.13" x2="0.605" y2="0.814" gradientUnits="objectBoundingBox">
      <stop offset="0" stop-color="#965cf2"/>
      <stop offset="1" stop-color="#ff8adc"/>
    </linearGradient>
    <linearGradient id="linear-gradient-11" x1="0.749" y1="0.38" x2="0.22" y2="0.54" gradientUnits="objectBoundingBox">
      <stop offset="0" stop-color="#ff8a78"/>
      <stop offset="1" stop-color="#ffa799"/>
    </linearGradient>
    <linearGradient id="linear-gradient-12" x1="0.458" y1="0.511" x2="0.942" y2="0.441" gradientUnits="objectBoundingBox">
      <stop offset="0" stop-color="#ffb89e"/>
      <stop offset="1" stop-color="#ffa799"/>
    </linearGradient>
    <linearGradient id="linear-gradient-13" x1="0.154" y1="0.366" x2="0.768" y2="0.514" gradientUnits="objectBoundingBox">
      <stop offset="0" stop-color="#3e4795"/>
      <stop offset="1" stop-color="#273088"/>
    </linearGradient>
    <linearGradient id="linear-gradient-14" x1="0.473" y1="0.317" x2="0.708" y2="0.856" gradientUnits="objectBoundingBox">
      <stop offset="0" stop-color="#5a2d68"/>
      <stop offset="1" stop-color="#22043d"/>
    </linearGradient>
    <linearGradient id="linear-gradient-15" x1="0.441" y1="0.355" x2="0.64" y2="0.813" xlink:href="#linear-gradient-14"/>
    <linearGradient id="linear-gradient-16" x1="0.466" y1="0.886" x2="0.512" y2="0.32" xlink:href="#linear-gradient-11"/>
    <linearGradient id="linear-gradient-17" x1="0.88" y1="0.699" x2="0.46" y2="0.364" gradientUnits="objectBoundingBox">
      <stop offset="0" stop-color="#fa79b6"/>
      <stop offset="1" stop-color="#ffbfbf"/>
    </linearGradient>
    <linearGradient id="linear-gradient-18" x1="0.78" y1="0.69" x2="-0.182" y2="0.176" xlink:href="#linear-gradient-17"/>
    <linearGradient id="linear-gradient-19" x1="0.522" y1="0.533" x2="0.594" y2="0.852" xlink:href="#linear-gradient-11"/>
    <linearGradient id="linear-gradient-20" x1="0.088" y1="0.373" x2="0.591" y2="0.782" xlink:href="#linear-gradient-12"/>
    <linearGradient id="linear-gradient-21" x1="0.446" y1="0.444" x2="0.505" y2="0.539" xlink:href="#linear-gradient-12"/>
    <linearGradient id="linear-gradient-22" x1="0.663" y1="0.578" x2="-1.818" y2="0.038" xlink:href="#linear-gradient-17"/>
    <linearGradient id="linear-gradient-23" x1="0.674" y1="0.778" x2="0.261" y2="0.12" xlink:href="#linear-gradient-10"/>
    <linearGradient id="linear-gradient-24" x1="0.177" y1="0.249" x2="1.047" y2="0.764" gradientUnits="objectBoundingBox">
      <stop offset="0" stop-color="#235da3"/>
      <stop offset="1" stop-color="#123a76"/>
    </linearGradient>
    <linearGradient id="linear-gradient-25" x1="0.45" y1="0.319" x2="0.88" y2="0.954" xlink:href="#linear-gradient-24"/>
    <linearGradient id="linear-gradient-26" x1="0.097" y1="0.109" x2="0.896" y2="0.648" xlink:href="#linear-gradient-24"/>
    <linearGradient id="linear-gradient-27" x1="0.501" y1="0.263" x2="0.499" y2="0.909" xlink:href="#linear-gradient-24"/>
    <linearGradient id="linear-gradient-28" x1="0.445" y1="0.376" x2="0.618" y2="1.058" xlink:href="#linear-gradient-24"/>
    <linearGradient id="linear-gradient-29" x1="0.54" y1="0.444" x2="0.317" y2="0.905" xlink:href="#linear-gradient-6"/>
    <linearGradient id="linear-gradient-30" x1="0.632" y1="0.828" x2="0.35" y2="0.127" xlink:href="#linear-gradient-8"/>
    <linearGradient id="linear-gradient-31" x1="0.622" y1="0.136" x2="0.227" y2="0.876" xlink:href="#linear-gradient-6"/>
    <linearGradient id="linear-gradient-32" x1="0.437" y1="0.285" x2="0.551" y2="0.78" xlink:href="#linear-gradient-11"/>
    <linearGradient id="linear-gradient-33" x1="0.129" y1="0.454" x2="1.148" y2="0.657" xlink:href="#linear-gradient-12"/>
    <linearGradient id="linear-gradient-34" x1="-0.163" y1="0.539" x2="0.667" y2="0.478" gradientUnits="objectBoundingBox">
      <stop offset="0" stop-color="#8a4791"/>
      <stop offset="1" stop-color="#562e65"/>
    </linearGradient>
    <linearGradient id="linear-gradient-35" x1="0.605" y1="0.116" x2="0.282" y2="0.738" xlink:href="#linear-gradient-6"/>
    <linearGradient id="linear-gradient-36" x1="0.587" y1="0.796" x2="0.386" y2="0.204" xlink:href="#linear-gradient-10"/>
    <linearGradient id="linear-gradient-37" x1="0.568" y1="1.064" x2="0.518" y2="0.483" xlink:href="#linear-gradient-10"/>
    <linearGradient id="linear-gradient-38" x1="0.589" y1="0.658" x2="0.311" y2="0.191" xlink:href="#linear-gradient-10"/>
    <linearGradient id="linear-gradient-39" x1="0.1" y1="-0.178" x2="0.755" y2="0.933" xlink:href="#linear-gradient-10"/>
    <linearGradient id="linear-gradient-40" x1="0.538" y1="-0.263" x2="0.483" y2="0.984" gradientUnits="objectBoundingBox">
      <stop offset="0" stop-color="#94e69a"/>
      <stop offset="1" stop-color="#17adc9"/>
    </linearGradient>
    <linearGradient id="linear-gradient-41" x1="0.546" y1="-0.267" x2="0.492" y2="0.986" xlink:href="#linear-gradient-40"/>
    <linearGradient id="linear-gradient-42" x1="0.579" y1="-0.267" x2="0.432" y2="1.781" xlink:href="#linear-gradient-40"/>
    <linearGradient id="linear-gradient-43" x1="0.351" y1="0.655" x2="0.813" y2="0.174" xlink:href="#linear-gradient-10"/>
    <linearGradient id="linear-gradient-44" x1="0.706" y1="0.197" x2="0.374" y2="0.686" gradientUnits="objectBoundingBox">
      <stop offset="0" stop-color="#fd90da"/>
      <stop offset="1" stop-color="#8e6dfd"/>
    </linearGradient>
    <linearGradient id="linear-gradient-45" x1="0.232" y1="-0.119" x2="0.537" y2="0.687" gradientUnits="objectBoundingBox">
      <stop offset="0" stop-color="#fd70cb"/>
      <stop offset="1" stop-color="#6e4dfd"/>
    </linearGradient>
    <linearGradient id="linear-gradient-46" x1="0.41" y1="0.623" x2="0.577" y2="0.131" xlink:href="#linear-gradient-6"/>
    <linearGradient id="linear-gradient-47" x1="0.456" y1="0.788" x2="0.627" y2="-0.023" xlink:href="#linear-gradient-10"/>
    <linearGradient id="linear-gradient-48" x1="0.506" y1="0.622" x2="0.472" y2="0.237" xlink:href="#linear-gradient-6"/>
    <linearGradient id="linear-gradient-49" x1="0.609" y1="0.875" x2="0.361" y2="0.023" xlink:href="#linear-gradient-6"/>
    <linearGradient id="linear-gradient-50" x1="0.584" y1="0.617" x2="0.365" y2="0.249" xlink:href="#linear-gradient-10"/>
    <linearGradient id="linear-gradient-51" x1="0.454" y1="0.664" x2="0.627" y2="0.049" gradientUnits="objectBoundingBox">
      <stop offset="0" stop-color="#1c8ef4"/>
      <stop offset="0.995" stop-color="#00cfdd"/>
    </linearGradient>
  </defs>
  <g id="Group_1539" data-name="Group 1539" transform="translate(-314.673 -59.941)">
    <g id="Group_1538" data-name="Group 1538">
      <g id="Group_1476" data-name="Group 1476">
        <g id="Group_1475" data-name="Group 1475">
          <g id="Group_1472" data-name="Group 1472">
            <g id="Group_1412" data-name="Group 1412">
              <g id="Group_1195" data-name="Group 1195" transform="translate(-9 28)">
                <g id="Group_498" data-name="Group 498">
                  <path id="Path_1" data-name="Path 1" d="M222.943,258.531c184.723-72.931,372.471-8.454,499.8,131.98s394.562-96.929,536.286,43.276c96.72,95.683,52.418,341.686-80.2,448.236C998.57,1026.85,327.017,1031.2,215.593,981.5c-190.4-84.924-1.216-242.188-90.094-392.944C20.643,410.7,141.311,290.76,222.943,258.531Z" transform="translate(239.02 -79.603)" fill="url(#linear-gradient)"/>
                </g>
              </g>
              <g id="Group_1411" data-name="Group 1411" transform="translate(474.993 45.941)">
                <g id="Group_1409" data-name="Group 1409" transform="translate(0 0)">
                  <g id="Group_1330" data-name="Group 1330" transform="translate(0 0)">
                    <g id="Group_1302" data-name="Group 1302" transform="translate(0)">
                      <g id="Group_1279" data-name="Group 1279" transform="translate(0)">
                        <g id="Group_1277" data-name="Group 1277" transform="translate(0 143.4)">
                          <g id="Group_1275" data-name="Group 1275" transform="translate(0.434 10.744)">
                            <path id="Path_7116" data-name="Path 7116" d="M4114.724,690.358l84.368-49.03L4179.5,548.363l0-.025,0-.011,0-.016,0-.023v0l0-.029,0-.008-.006-.021,0-.02,0-.009-.007-.031v0l-.007-.029,0-.016,0-.016-.007-.03,0,0-.009-.034,0-.011-.006-.023-.008-.025,0-.009-.011-.035v-.005l-.01-.03-.007-.021,0-.016-.013-.036h0l-.012-.037-.005-.015-.008-.022-.01-.031,0-.006-.014-.038,0-.01-.011-.029-.01-.026-.006-.013-.015-.039v0l-.015-.035-.008-.019-.009-.02-.016-.036v0l-.018-.04-.006-.013-.013-.026-.014-.03,0-.009-.02-.04,0-.006-.016-.033-.013-.023-.007-.017-.021-.04h0l-.021-.039-.009-.017-.013-.022-.019-.033,0-.006-.023-.039,0-.01-.018-.029-.016-.026-.007-.012-.025-.038v0l-.024-.035-.012-.018-.012-.018-.025-.034v0l-.027-.037-.009-.011-.018-.023-.028-.035-.028-.035,0,0-.024-.029-.017-.02-.012-.013-.03-.033-.031-.031-.013-.014-.018-.018-.026-.026,0-.005-.033-.029-.007-.008-.026-.021-.022-.019-.011-.008-.034-.027,0,0-.032-.023-.018-.013-.018-.013-.033-.023h0l-.035-.023-.013-.008-.025-.014a1.39,1.39,0,0,0-1.259-.059l-84.359,49.029C4095.39,593.669,4106.61,662.945,4114.724,690.358Z" transform="translate(-4092.627 -546.034)" fill-rule="evenodd" fill="url(#linear-gradient-2)"/>
                            <path id="Path_7117" data-name="Path 7117" d="M4166.473,549.733c-35.433,40.607-77.7,65.685-73.565,100.925l8.785,41.069,84.368-49.03Z" transform="translate(-4079.596 -547.404)" fill="#e23b93" fill-rule="evenodd"/>
                          </g>
                          <g id="Group_1276" data-name="Group 1276" transform="translate(23.496 0)">
                            <path id="Path_7118" data-name="Path 7118" d="M4081.2,580.945l1.906,94.285,88.485-51.08-.263-93.47Z" transform="translate(-4080.996 -529.605)" fill="#f2f4ff" fill-rule="evenodd"/>
                            <path id="Path_7119" data-name="Path 7119" d="M4223.569,611.175l-1.849-1.076.263,93.473,1.848,1.068Z" transform="translate(-4221.72 -559.013)" fill="#c5dbf1" fill-rule="evenodd"/>
                            <path id="Path_7120" data-name="Path 7120" d="M4171.953,530.048l-1.856-1.076-88.477,51.086,1.849,1.076Z" transform="translate(-4081.619 -528.972)" fill="#dce8f8" fill-rule="evenodd"/>
                            <path id="Path_7121" data-name="Path 7121" d="M4086.879,660.458l.02,5.9,81.9-47.287-.019-5.893-81.9,47.283Zm-.183-67.771.009,5.894,81.9-47.283-.018-5.893L4086.7,592.687Zm.025,9.678,81.89-47.283.018,5.893-81.889,47.282-.02-5.892Zm.026,9.684,81.9-47.281.009,5.893-81.89,47.281-.019-5.893Zm.026,9.684,81.9-47.282.018,5.892-81.9,47.284-.019-5.894Zm.026,9.679,81.9-47.283.018,5.893-81.9,47.283-.018-5.893Zm.027,9.684,81.9-47.283.018,5.893-81.9,47.283-.017-5.893Zm.026,9.685,81.9-47.283.018,5.892-81.9,47.282Z" transform="translate(-4081.659 -535.057)" fill="#c5dbf1" fill-rule="evenodd"/>
                          </g>
                          <path id="Path_7122" data-name="Path 7122" d="M4071.729,629.9l-20.113,70.726,0,0a8.5,8.5,0,0,1-1.238,2.251l84.361-49.023a3.357,3.357,0,0,0,1.243-2.25l20.112-70.731-.018.011,3.771-13.259a3.435,3.435,0,0,0-.727-2.4c-3.5,3.192-22.21,14.64-25.659,16.67-5.778,4.526-5.976,10.117-14.727,19.4a15.128,15.128,0,0,1-4.329,3.468Z" transform="translate(-4026.372 -542.398)" fill-rule="evenodd" fill="url(#linear-gradient-3)"/>
                          <path id="Path_7123" data-name="Path 7123" d="M4234.589,648.912a2.4,2.4,0,0,0-.413-.3c-.659-.378-1.251-.216-1.449.436L4212.805,719.2l-19.583-92.965a3.315,3.315,0,0,0-1.431-2.1,1.865,1.865,0,0,0-.406-.174c-.808-.215-1.282.474-1.055,1.515l19.7,93.588a14.038,14.038,0,0,0,1.2,3.662,4.222,4.222,0,0,0,1.586,1.789,1.372,1.372,0,0,0,1.563.037,4.2,4.2,0,0,0,1.142-2.185l20.117-70.737A3.1,3.1,0,0,0,4234.589,648.912Z" transform="translate(-4190.273 -564.134)" fill="#e23b93" fill-rule="evenodd"/>
                          <path id="Path_7124" data-name="Path 7124" d="M4092.929,601.553l-42.554,24.729c1.106-.542,2.8,1.946,2.514,3.13l42.978-24.975a26.348,26.348,0,0,0,3.582-2.317c6.109-4.825,8.993-11.436,12.983-16.784a17.1,17.1,0,0,1,3.422-3.465c1.061-.578,1.622-.885,1.434-.793l23.719-13.961a3.448,3.448,0,0,0-.732-2.379c-.449-.477-1.15-1.066-1.788-.731l-23.76,13.986c.188-.093-.374.215-1.435.793a17.12,17.12,0,0,0-3.422,3.463c-4.223,5.659-7.245,12.021-14.1,17.418A22.405,22.405,0,0,1,4092.929,601.553Z" transform="translate(-4007.531 -541.91)" fill="#fb84b6" fill-rule="evenodd"/>
                        </g>
                        <g id="Group_1278" data-name="Group 1278" transform="translate(186.132 14)">
                          <path id="Path_7125" data-name="Path 7125" d="M3809.316,397.327c-22.566-13.045-42.246-43.813-43.973-68.746-1.727-24.918,15.157-34.563,37.723-21.517,22.551,13.038,42.247,43.828,43.971,68.747S3831.868,410.365,3809.316,397.327Z" transform="translate(-3765.221 -301.248)" fill-rule="evenodd" fill="url(#linear-gradient-4)"/>
                          <path id="Path_7126" data-name="Path 7126" d="M3826.9,353.933l5.984,2.993-26.569,40.443-23.455-34.781,7.723,3.019,12.387,11.759Z" transform="translate(-3771.752 -320.757)" fill="#fff" fill-rule="evenodd"/>
                        </g>
                      </g>
                      <g id="Group_1301" data-name="Group 1301" transform="translate(35.564 26.322)">
                        <g id="Group_1291" data-name="Group 1291" transform="translate(92.691 31.016)">
                          <path id="Path_7127" data-name="Path 7127" d="M3530.155,1527.171l241.222-147.646c8.954-4.383,22.108-8.519,30.889-2.786l22.466,14.669c4.52,2.951,19.383,12.744,9.442,18.537-29.246,17.042-216.11,134.046-245.806,151.358-5.617,3.274-13.834,4.457-22.458,3.689-8.586-.765-17.5-3.254-24.323-7.762l-8.975-5.932c-6.344-4.193-9.857-8.772-10.2-13.167C3522.086,1533.838,3524.66,1529.859,3530.155,1527.171Z" transform="translate(-3492.388 -761.794)" fill="#9e9bf5" fill-rule="evenodd" opacity="0.16" style="mix-blend-mode: multiply;isolation: isolate"/>
                          <g id="Group_1290" data-name="Group 1290" transform="translate(14.58 0)">
                            <g id="Group_1282" data-name="Group 1282">
                              <g id="Group_1280" data-name="Group 1280">
                                <path id="Path_7128" data-name="Path 7128" d="M3543.566,1144.745c.036,12.569,4.519,21.417,11.682,25.58l11.369,6.836c39-16.644,24.528-214.294,26.906-270.485l-11.977-294.888c10.069-17.595,48.808-32.949,39.767-68.883l114.311-53.51c5.074-3.451,138.473-80.7,114.526-95.191-4-2.422-7.967-4.862-11.923-7.161-8.84-5.23-20.108-2-28.384,2.776h0l-227.46,130.466c-22.326,12.863-39.837,43.989-39.769,68.879Z" transform="translate(-3542.614 -384.362)" fill-rule="evenodd" fill="url(#linear-gradient-5)"/>
                                <path id="Path_7129" data-name="Path 7129" d="M3834.457,423.958c-.034-12.322-4.3-21.072-11.217-25.334-7.284-4.491-17.5-4.005-28.809,2.524L3566.971,531.609c-22.013,12.713-39.837,43.583-39.767,68.883l.948,555.58c.072,25.3,18.014,35.524,40.03,22.811l227.457-130.464c22.04-12.725,39.839-43.584,39.768-68.88Z" transform="translate(-3515.295 -388.551)" fill="#fff" fill-rule="evenodd"/>
                                <path id="Path_7130" data-name="Path 7130" d="M3834.457,423.958c-.034-12.322-4.3-21.072-11.217-25.334-7.284-4.491-17.5-4.005-28.809,2.524L3566.971,531.609c-22.013,12.713-39.837,43.583-39.767,68.883l.948,555.58c.072,25.3,18.014,35.524,40.03,22.811l227.457-130.464c22.04-12.725,39.839-43.584,39.768-68.88Z" transform="translate(-3515.295 -388.551)" fill-rule="evenodd" fill="url(#linear-gradient-6)"/>
                              </g>
                              <g id="Group_1281" data-name="Group 1281" transform="translate(32.842 76.009)">
                                <path id="Path_7131" data-name="Path 7131" d="M3959.953,669.689c-5.961,3.441-10.808.677-10.826-6.171s4.8-15.191,10.757-18.634,10.808-.679,10.827,6.171S3965.914,666.245,3959.953,669.689Z" transform="translate(-3949.126 -556.293)" fill="#485af4" fill-rule="evenodd"/>
                                <path id="Path_7132" data-name="Path 7132" d="M3783.839,507.126c0-1.866-1.325-2.6-2.951-1.633-23.637,13.355-62.373,35.158-86.009,48.513a6.6,6.6,0,0,0-2.934,5.13v3.692c.006,1.866,1.329,2.6,2.951,1.633,23.637-13.355,62.374-35.158,86.009-48.514a6.594,6.594,0,0,0,2.934-5.128Z" transform="translate(-3600.309 -505.068)" fill="#485af4" fill-rule="evenodd"/>
                              </g>
                            </g>
                          </g>
                        </g>
                        <g id="Group_1296" data-name="Group 1296" transform="translate(6 347.924)">
                          <path id="Path_7155" data-name="Path 7155" d="M3969.493,734.867l-8.62-4.913-62.716,171.992.322,73.355,9.913,3.752q26.134-15.241,52.292-30.29c4.747-2.74,8.579-9.385,8.563-14.833Z" transform="translate(-3809.631 -728.516)" fill-rule="evenodd" opacity="0.5" fill="url(#linear-gradient-7)" style="mix-blend-mode: multiply;isolation: isolate"/>
                          <g id="Group_1295" data-name="Group 1295">
                            <path id="Path_7156" data-name="Path 7156" d="M4059.007,729.488l-3.946-2.086a6.27,6.27,0,0,0-5.03.89c-47.213,27.079-94.328,55.111-141.545,82.192-4.45,2.571-8.055,8.812-8.04,13.927l-.232,186.9c.006,2.323.761,4.019,2,4.935,1.485,1.1,4.549,3.481,6.977,2.079,47.215-27.081,93.456-57.519,140.663-84.6,4.456-2.573,8.055-8.812,8.041-13.927Z" transform="translate(-3900.213 -727.187)" fill="#f2f4ff" fill-rule="evenodd"/>
                            <path id="Path_7157" data-name="Path 7157" d="M4053.5,736.336c-.015-5.115-3.638-7.186-8.094-4.612-47.212,27.079-94.327,55.111-141.544,82.192-4.45,2.571-8.054,8.811-8.039,13.927l-.232,186.9c.015,5.115,3.644,7.181,8.094,4.611,47.214-27.081,94.337-55.116,141.544-82.191,4.457-2.573,8.056-8.812,8.041-13.928Z" transform="translate(-3892.31 -728.835)" fill="#fff" fill-rule="evenodd"/>
                            <path id="Path_7158" data-name="Path 7158" d="M4053.439,736.336c-.014-5.116-3.637-7.186-8.093-4.612-47.213,27.079-94.328,55.111-141.545,82.193-4.449,2.571-8.053,8.811-8.039,13.927l-.168,146.864,157.677-90.438Z" transform="translate(-3892.247 -728.835)" fill-rule="evenodd" fill="url(#linear-gradient-8)"/>
                            <g id="Group_1292" data-name="Group 1292" transform="translate(53.633 172.745)">
                              <path id="Path_7159" data-name="Path 7159" d="M3968.59,1062.178c-.006-2.209-1.57-3.077-3.495-1.933l-43.484,24.57a7.819,7.819,0,0,0-3.473,6.073v4.371c.008,2.209,1.573,3.076,3.5,1.933l43.484-24.57a7.812,7.812,0,0,0,3.473-6.073Z" transform="translate(-3872.742 -1059.741)" fill="#a67ef6" fill-rule="evenodd" opacity="0.25"/>
                              <path id="Path_7160" data-name="Path 7160" d="M4013.987,1099.348c0-1.946-1.383-2.711-3.078-1.7-24.654,13.93-65.057,36.671-89.71,50.6a6.889,6.889,0,0,0-3.06,5.351v3.85c.005,1.946,1.385,2.709,3.079,1.7,24.653-13.931,65.056-36.671,89.71-50.6a6.877,6.877,0,0,0,3.06-5.35Z" transform="translate(-3918.139 -1077.742)" fill="#a67ef6" fill-rule="evenodd" opacity="0.25"/>
                            </g>
                            <g id="Group_1293" data-name="Group 1293" transform="translate(13.232 92.722)">
                              <path id="Path_7161" data-name="Path 7161" d="M4149,906.019c-6.287,1.663-11.911,9.1-12.562,16.619s3.917,12.26,10.2,10.6,11.911-9.1,12.562-16.618S4155.282,904.356,4149,906.019Z" transform="translate(-4136.372 -905.687)" fill="#fff" fill-rule="evenodd" opacity="0.5"/>
                              <path id="Path_7162" data-name="Path 7162" d="M4153.636,919.089c-3.187.843-6.037,4.614-6.367,8.423s1.986,6.214,5.171,5.37,6.038-4.613,6.367-8.422S4156.822,918.247,4153.636,919.089Z" transform="translate(-4141.595 -912.047)" fill="#fff" fill-rule="evenodd"/>
                            </g>
                            <path id="Path_7163" data-name="Path 7163" d="M3924.331,937.307c2.568-7.9,9.085-23.751,9.8-32.017.73-8.419-4.387-13.733-11.43-11.871s-13.341,10.2-14.07,18.614c-.78,9,9.96,18.288,15.7,25.274Zm-1.522-38.093c4.241-1.122,7.322,2.079,6.883,7.146s-4.232,10.086-8.472,11.208-7.321-2.078-6.882-7.146S3918.57,900.335,3922.809,899.214Z" transform="translate(-3779.76 -806.891)" fill="#fff" fill-rule="evenodd"/>
                            <path id="Path_7164" data-name="Path 7164" d="M4043.732,963.072a1.325,1.325,0,0,1-2.15,1.55c-1.031-1.425-2.074-2.833-3.132-4.238a1.325,1.325,0,0,1,2.113-1.6q1.607,2.131,3.169,4.288Zm-119.1-24.626a1.326,1.326,0,0,1,2.632-.32,42.713,42.713,0,0,0,.893,5.074,1.326,1.326,0,0,1-2.581.609,46.457,46.457,0,0,1-.944-5.363Zm3.5,13.132a1.325,1.325,0,0,1,2.429-1.061,34.35,34.35,0,0,0,2.356,4.529,1.326,1.326,0,0,1-2.25,1.4,37.584,37.584,0,0,1-2.535-4.871Zm7.781,11.3a1.325,1.325,0,0,1,1.773-1.971,19.651,19.651,0,0,0,4.042,2.868,1.326,1.326,0,0,1-1.228,2.35,22.3,22.3,0,0,1-4.587-3.248Zm12.846,5.329a1.325,1.325,0,0,1-.024-2.649,15.882,15.882,0,0,0,4.818-.754,1.326,1.326,0,0,1,.822,2.521,18.658,18.658,0,0,1-5.616.882Zm13.016-4.72a1.326,1.326,0,0,1-1.565-2.14,35.433,35.433,0,0,0,3.893-3.3,1.325,1.325,0,0,1,1.858,1.891,39.032,39.032,0,0,1-4.186,3.552Zm9.56-9.666a1.326,1.326,0,0,1-2.115-1.6c1.056-1.386,2.048-2.8,3.009-4.25a1.326,1.326,0,0,1,2.222,1.446c-.982,1.5-2.028,2.974-3.115,4.4Zm7.243-11.261a1.326,1.326,0,0,1-2.278-1.356,37.049,37.049,0,0,1,3.065-4.535,1.325,1.325,0,0,1,2.078,1.646c-.976,1.463-1.941,2.682-2.865,4.245Zm8.244-9.54a1.325,1.325,0,0,1-1.529-2.166,22.126,22.126,0,0,1,4.953-2.681,1.326,1.326,0,0,1,.919,2.487,19.055,19.055,0,0,0-4.343,2.359Zm11.621-3.468a1.326,1.326,0,0,1,.136-2.648,25.479,25.479,0,0,1,5.51.936,1.326,1.326,0,0,1-.727,2.549,22.761,22.761,0,0,0-4.92-.838Zm11.955,3.8a1.325,1.325,0,0,1,1.284-2.319,51.408,51.408,0,0,1,4.61,2.888,1.326,1.326,0,0,1-1.525,2.17,45.819,45.819,0,0,0-4.37-2.739Zm10.49,7.578a1.325,1.325,0,0,1,1.754-1.987c1.357,1.193,2.632,2.42,3.933,3.67a1.326,1.326,0,0,1-1.869,1.882c-1.221-1.222-2.521-2.424-3.818-3.565Zm9.229,9.274a1.326,1.326,0,0,1,1.986-1.757c1.185,1.334,2.34,2.685,3.482,4.055a1.326,1.326,0,0,1-2.041,1.692C4032.426,952.847,4031.288,951.518,4030.121,950.206Z" transform="translate(-3897.889 -823.159)" fill="#fff" fill-rule="evenodd"/>
                            <g id="Group_1294" data-name="Group 1294" transform="translate(140.658 134.727)">
                              <path id="Path_7165" data-name="Path 7165" d="M3919.757,986.715c-3.073.812-5.823,4.449-6.14,8.124s1.915,5.992,4.988,5.179,5.822-4.45,6.14-8.123S3922.83,985.9,3919.757,986.715Z" transform="translate(-3913.587 -986.553)" fill="#fff" fill-rule="evenodd" opacity="0.5"/>
                              <path id="Path_7166" data-name="Path 7166" d="M3922.026,993.1a4.833,4.833,0,0,0-3.113,4.117c-.162,1.862.97,3.037,2.528,2.625a4.829,4.829,0,0,0,3.112-4.117C3924.715,993.868,3923.583,992.693,3922.026,993.1Z" transform="translate(-3916.14 -989.661)" fill="#fff" fill-rule="evenodd"/>
                            </g>
                          </g>
                        </g>
                        <g id="Group_1300" data-name="Group 1300" transform="translate(348.76 0)">
                          <path id="Path_7167" data-name="Path 7167" d="M3589.22,444.241q-25.714,14.982-51.45,29.779c-5.247,3.031-9.5,10.39-9.479,16.421l-.273,220.364c.017,6.03,4.295,8.467,9.543,5.436l68.465-39.7.1-54.471Z" transform="translate(-3528.018 -375.519)" fill-rule="evenodd" opacity="0.5" fill="url(#linear-gradient-9)" style="mix-blend-mode: multiply;isolation: isolate"/>
                          <g id="Group_1299" data-name="Group 1299" transform="translate(9.217 0)">
                            <path id="Path_7168" data-name="Path 7168" d="M3534.06,337.654l-4.368-2.309a6.942,6.942,0,0,0-5.568.986c-52.265,29.977-104.422,61.007-156.69,90.988-4.926,2.846-8.916,9.754-8.9,15.416l-.256,206.9c.007,2.573.841,4.449,2.212,5.463,1.644,1.217,5.036,3.854,7.723,2.3,52.267-29.979,103.456-63.674,155.715-93.647,4.933-2.849,8.917-9.755,8.9-15.418Z" transform="translate(-3358.276 -335.107)" fill="#f2f4ff" fill-rule="evenodd"/>
                            <path id="Path_7169" data-name="Path 7169" d="M3528.863,344.571c-.016-5.662-4.027-7.955-8.959-5.106-52.264,29.977-104.421,61.008-156.69,90.988-4.926,2.846-8.917,9.755-8.9,15.418l-.257,206.9c.017,5.661,4.033,7.949,8.961,5.1,52.265-29.979,104.431-61.013,156.689-90.987,4.934-2.848,8.917-9.755,8.9-15.417Z" transform="translate(-3350.422 -336.268)" fill="#fff" fill-rule="evenodd"/>
                            <path id="Path_7170" data-name="Path 7170" d="M3528.791,344.571c-.017-5.662-4.027-7.954-8.959-5.106-52.265,29.977-104.422,61.008-156.691,90.988-4.926,2.846-8.917,9.755-8.9,15.418l-.185,162.579L3528.6,508.333Z" transform="translate(-3350.351 -336.267)" fill-rule="evenodd" fill="url(#linear-gradient-10)"/>
                            <g id="Group_1297" data-name="Group 1297" transform="translate(59.371 191.229)">
                              <path id="Path_7171" data-name="Path 7171" d="M3430.494,641.485c-.006-2.445-1.739-3.4-3.869-2.139l-48.137,27.2a8.655,8.655,0,0,0-3.844,6.723v4.838c.008,2.445,1.742,3.4,3.87,2.141l48.137-27.2a8.65,8.65,0,0,0,3.845-6.723Z" transform="translate(-3324.389 -638.788)" fill="#f786dc" fill-rule="evenodd" opacity="0.25"/>
                              <path id="Path_7172" data-name="Path 7172" d="M3480.748,675.371c0-2.154-1.531-3-3.407-1.885-27.293,15.42-72.018,40.6-99.31,56.015a7.622,7.622,0,0,0-3.387,5.922v4.264c.006,2.154,1.534,3,3.408,1.885,27.293-15.421,72.018-40.6,99.31-56.016a7.616,7.616,0,0,0,3.387-5.922Z" transform="translate(-3374.644 -651.454)" fill="#f786dc" fill-rule="evenodd" opacity="0.25"/>
                            </g>
                            <path id="Path_7173" data-name="Path 7173" d="M3393.656,511.674l.185,102.811L3364.985,631.3l-.185-102.811,28.856-16.817Zm86.646-81.78.287,137.617-28.854,16.817-.288-137.617,28.855-16.817Zm-43.221,48.781.218,114.066-28.855,16.818-.218-114.067,28.855-16.817Zm86.6-39.2.186,102.811-28.855,16.817-.185-102.811Z" transform="translate(-3352.19 -370.206)" fill="#f786dc" fill-rule="evenodd"/>
                            <g id="Group_1298" data-name="Group 1298" transform="translate(11.063 106.43)">
                              <path id="Path_7174" data-name="Path 7174" d="M3524.1,507.238a1.676,1.676,0,0,0-.145-2.631,2.463,2.463,0,0,0-3.088.123l-27.337,25.6-13.241,5.639-28.39-5.791L3434.667,511.3a2.453,2.453,0,0,0-3.072-.328,2.068,2.068,0,0,0-.48.439L3390.6,554.9l-24.694,6.091a2.07,2.07,0,0,0-2.258,1.793,2.014,2.014,0,0,0,2.1,1.924l25.748-6.057a2.357,2.357,0,0,0,1.867-.72l39.569-42.443,15.969,17.493.006-.005a2.232,2.232,0,0,0,1.217.668l29.918,6.1a2.5,2.5,0,0,0,1.48-.146l14.183-6.041a2.2,2.2,0,0,0,.787-.469Z" transform="translate(-3363.335 -504.122)" fill="#955cf1" fill-rule="evenodd" opacity="0.5" style="mix-blend-mode: multiply;isolation: isolate"/>
                              <path id="Path_7175" data-name="Path 7175" d="M3524.417,507.779a2.186,2.186,0,0,0-3.233-2.943l-27.337,30.05-13.241,6.62-28.39-6.8-17.234-22.157a2.191,2.191,0,0,0-3.551.13l-38.406,49.558-27.115-1.012a2.182,2.182,0,1,0-.154,4.362l28.17,1.051a2.179,2.179,0,0,0,1.867-.844l37.462-48.336,15.969,20.534.006-.005a2.177,2.177,0,0,0,1.217.783l29.918,7.164a2.16,2.16,0,0,0,1.48-.172l14.183-7.091a2.168,2.168,0,0,0,.787-.55Z" transform="translate(-3363.65 -504.122)" fill="#fff" fill-rule="evenodd"/>
                            </g>
                          </g>
                        </g>
                      </g>
                    </g>
                    <g id="Group_1310" data-name="Group 1310" transform="translate(550.927 77.068)">
                      <path id="Path_7176" data-name="Path 7176" d="M3117.786,1364.333,3006.054,1300.7c-12.18-5.565-29.614-10-42.024-3.537-11.307,5.885-29.934,17.929-38.17,22.625-6.255,3.568-27.971,16.578-14.446,23.933,39.789,21.635,79.165,45.969,119.568,67.948,7.642,4.157,18.82,5.659,30.555,4.684,11.683-.97,23.667-4.373,33.092-9.856q10.072-5.857,19.814-11.532c8.763-5.1,13.41-11.137,13.871-16.716C3128.765,1372.8,3125.262,1367.745,3117.786,1364.333Z" transform="translate(-2854.821 -863.912)" fill="#9e9bf5" fill-rule="evenodd" opacity="0.5" style="mix-blend-mode: multiply;isolation: isolate"/>
                      <g id="Group_1305" data-name="Group 1305" transform="translate(109.37 185.898)">
                        <g id="Group_1303" data-name="Group 1303" transform="translate(4.851 15.511)">
                          <path id="Path_7177" data-name="Path 7177" d="M3079.605,930.87c-.516,4.878.227,12.333-.149,30.683-.266,12.977,1.474,35.638,2.834,55.1.563,8.054,1.685,15.178,2.4,21.447.519,4.557,2.508,9.039,3.164,13.475,4.929,33.328,11.278,63.617,15.061,103.905.871,9.265,1.846,14.026.214,23.226-.318,1.79-1.207,3.591-1.438,5.39-1.139,8.886-2,17.729-5.48,25.112-.5,1.072-1.288,3.907-1.915,5.079,0,0,7.962,2.77,8.932,2.908s13.8-3.432,13.8-3.432,4.775-21.419,4.7-22.655c-.829-14.037,8.91-11.454.265-22.083-.812-1.329-.6-1.447-.591-3.019.1-13.883,2.466-34.024,4.239-52.046,5.062-51.5-3.538-47.8-5.461-72.407,3.537-29.615,10.715-71.667,9.958-108.116Z" transform="translate(-3079.416 -930.87)" fill-rule="evenodd" fill="url(#linear-gradient-11)"/>
                          <path id="Path_7178" data-name="Path 7178" d="M3089.494,1344.867c-1.38,2.532-2.868,6.165-4.137,8.9a55.694,55.694,0,0,0-3.238,8.623,4.054,4.054,0,0,0,.292,3.467c3.1,4.159,18.627-3.427,23.832-8.022,3.362-2.969,3.424-6.48,4.214-10.768,1.187-6.436,1.388-7.159,2.93-13.773l1.748,17.954,1.48.9a199.912,199.912,0,0,1,2.219-23.236c.451-2.491,1.219-5.331,1.328-6.709.64-8.13-3.382-12.13-7.081-14.417,1.359,4.943-2.226,12.983-3.855,23.106-1.705,10.593-7.572,22.176-12.183,23.157-1.942.412-6.238-2.012-8.574-3.343C3087.581,1350.2,3088.588,1347.162,3089.494,1344.867Z" transform="translate(-3071.005 -1070.439)" fill="#273087" fill-rule="evenodd"/>
                        </g>
                        <g id="Group_1304" data-name="Group 1304" transform="translate(5.31)">
                          <path id="Path_7179" data-name="Path 7179" d="M3086.89,906.237c5.266,17.1,15.755,32.776,17.814,46.194,2.075,13.519.95,26.317-1.662,46.513-1.776,13.728-8.749,44.7-7.264,56.458,2.174,17.205,8.432,27.4,10.507,47.545,1.669,16.219-1,39.783-1.8,62.238-.305,8.54.427,8.663,2.462,16.4a59.311,59.311,0,0,1,1.448,8.016,119.4,119.4,0,0,1,.562,24.295c-.271,3.431-1.541,5.072-1.866,9.766l-19.1,6.081c.441-4.059,1.013-10.266,1.271-17.107.23-6.12.17-12.748.153-18.814-.024-8.7.833-14.172-.711-22.4-5.136-27.376-13.1-51.465-18.486-73.969-2.815-11.761-3.645-22.222-7.78-39.037a115.132,115.132,0,0,1-3.495-20.761c-1.089-18.713-4.671-41.163-4.788-60.372-15.459-22.413-25.5-33.42-29.7-45.091-.8-7.594,1.854-16.757,1.854-16.757Z" transform="translate(-3024.305 -906.237)" fill-rule="evenodd" fill="url(#linear-gradient-12)"/>
                          <path id="Path_7180" data-name="Path 7180" d="M3039.341,1333.016c1.647,3.79,3.218,5.721,4.087,11.071s-.519,14.068.554,20.691l1.7,10.514c.992,6.123-.016,10.592-6.339,16.583-5.732,5.431-11.653,8.119-15.221,6.921-2.627-.883-5.166-4.979-2.874-16.952,1.909-9.975,1.821-19.418,2.324-30.035.676,10.286.936,13.789-.226,24.1-.323,2.882-.5,7.533,2.875,7.575,13.961.176,14.171-3.6,14.751-7.976C3042.528,1363.815,3042.122,1343.428,3039.341,1333.016Z" transform="translate(-2958.509 -1064.271)" fill="#273087" fill-rule="evenodd"/>
                        </g>
                        <path id="Path_7181" data-name="Path 7181" d="M3097.717,906.237c5.266,17.1,15.755,32.776,17.814,46.194,3.094,20.158-.464,36.16-5.921,80.027a48.19,48.19,0,0,0,1.177,16.109c3.253,15.274-11.769,19.552-29.622,13.9-21.809-6.9-41.9-23.191-43.193-30.711-2.439-21.414-8.511-62.141-8.134-80.491s4.508-24.645,5.024-29.522l.18-4.723C3035.647,913.235,3089.973,907.413,3097.717,906.237Z" transform="translate(-3029.822 -906.237)" fill-rule="evenodd" fill="url(#linear-gradient-13)"/>
                      </g>
                      <path id="Path_7182" data-name="Path 7182" d="M3060.341,707.2c-39.988,21.506-56.736-19.617-60.864-50.637-1.778-13.354-1.317-26.117,4.458-34.112,6.064-8.4,16.227-11.787,26.2-11.4,21.606.845,33.207,21.357,27.993,42.8C3053.03,674.8,3042.987,697.491,3060.341,707.2Z" transform="translate(-2844.427 -611.024)" fill-rule="evenodd" fill="url(#linear-gradient-14)"/>
                      <path id="Path_7183" data-name="Path 7183" d="M3046.821,629.854c10.912-5.613,26.567,7.009,21.46,24.178C3066.6,644.965,3061.3,634.924,3046.821,629.854Z" transform="translate(-2883.754 -617.496)" fill="#f58c7e" fill-rule="evenodd"/>
                      <path id="Path_7184" data-name="Path 7184" d="M3088.455,627.261c-38.363-12.711-65.759,46.558-21.871,64.927C3108.6,709.771,3131.049,641.375,3088.455,627.261Z" transform="translate(-2924.085 -616.381)" fill-rule="evenodd" fill="url(#linear-gradient-15)"/>
                      <g id="Group_1306" data-name="Group 1306" transform="translate(0 116.024)">
                        <path id="Path_7185" data-name="Path 7185" d="M3275.449,796.51c-2.279,3.3,2.011,5.586,3.936,5.689,3.074.4,7.457-1.167,8.545.887,1.22,2.305,15.608-2.447,15.455-2.591-5.909-4.254-11.354-5.281-12.291-5.218C3281.886,795.884,3284.571,797.955,3275.449,796.51Z" transform="translate(-3261.422 -795.275)" fill-rule="evenodd" fill="url(#linear-gradient-16)"/>
                        <path id="Path_7186" data-name="Path 7186" d="M3218.093,815.687c13.2,3.731,31.238,16.625,43.8,19.462,3.966.9,10.163,2.634,13.283-.738,16.152-17.454-6.3-11.715-8.2-18.311-11.491-8.55-29.477-4.514-44.193-12.437a27.9,27.9,0,0,0-2.869-1.689c-5.771-2.877-9-2.638-19.017,2.4-2.921,1.467-4.421,1.276-6.968,1.2l-10.078-1.3c-3.091-.114-5.06.623-5.541,1.635-.535,1.126.57,7.494,2.375,10l.008.011c.386,1.174,2.669,2.067,6.261,2.115l14.732,4.513.688-.39C3211.154,817.183,3214.9,815.53,3218.093,815.687Z" transform="translate(-3178.18 -797.07)" fill="#ffa698" fill-rule="evenodd"/>
                      </g>
                      <path id="Path_7187" data-name="Path 7187" d="M3181.865,813.078c11.9-11.1,28.783-27.231,34.82-39.978,3.926-8.285,4.657-31.545-8-34.485-4.237-2.67-10.678,14.653-15.018,21.647-7.838,12.63-13.648,20.19-22.854,31.858-9.779-6.344-23.268-6.971-35.968-10.119a12.543,12.543,0,0,0-5.843-.165,19.747,19.747,0,0,1-4.419-1.542c-1.44.392-6.205,8.628-5.388,13.482,1.011.285,3.251.974,4.307,1.347,1.5.531,2.347,1.967,3.834,2.768,5.055,2.723,27.759,14.012,39.066,16.566,4.305.972,11.232,3.212,14.62-.449C3181.316,813.691,3181.595,813.382,3181.865,813.078Z" transform="translate(-3079.21 -658.167)" fill-rule="evenodd" fill="url(#linear-gradient-17)"/>
                      <path id="Path_7188" data-name="Path 7188" d="M3154.634,815.71c3.942-3.677,8.431-7.907,12.892-12.383-9.367-8.2-8.51-22.747-2.445-31.6a81.213,81.213,0,0,0,8.287-14.635,66.168,66.168,0,0,1,1.844-8.381,12.106,12.106,0,0,1,1.38-3.261c-1.934,2.447-3.079,7.235-6.253,13.947-5.428,11.481-13.673,18.174-14.334,31.679-.489,9.967-5.036,21.722-12.458,27.033,3.737.767,7.864,1.108,10.243-1.465C3154.084,816.323,3154.364,816.014,3154.634,815.71Z" transform="translate(-3051.978 -660.8)" fill="#f969ac" fill-rule="evenodd" opacity="0.35" style="mix-blend-mode: multiply;isolation: isolate"/>
                      <g id="Group_1307" data-name="Group 1307" transform="translate(108.522 79.422)">
                        <path id="Path_7189" data-name="Path 7189" d="M3103.227,825.951c-7.332,16.966,5.133,26.356.645,38.041l1.386,7.914c-13.38,9.607-61.235,10.323-73.232-8.723l-.25-9.5c-2.065-4.548-.706-16.042-.1-19.075,1.927-9.642,1.027-14.76,2.08-25.912.266-2.819.795-4.594,1.054-7.45-10.655-7.964-9.984-23.37-3.669-32.595a81.048,81.048,0,0,0,8.287-14.635,66.3,66.3,0,0,1,1.845-8.382,13.909,13.909,0,0,1,2.232-4.579c3.042-4.342,7.959-4.862,18-2.557,19.9,4.568,40.4,14.9,49.551,24.646,6.654,7.087,6.389,14.951,2.572,31.949A182.189,182.189,0,0,1,3103.227,825.951Z" transform="translate(-3026.561 -737.148)" fill-rule="evenodd" fill="url(#linear-gradient-18)"/>
                        <path id="Path_7190" data-name="Path 7190" d="M3102.628,847.4c-7.331,16.965,4.831,26.658.343,38.344l1.386,7.812c-13.38,10.414-61.235,9.92-73.232-9.127l.254-8.288c.005-.33,23.5,20.838,50.24,9.068,5.81-2.557,11.068-15.269,3.548-39.546-.715-2.31-9.239-2.469-21.312-11.361,8.912,3.779,25.717,8.956,26.546-13.719.37-10.139,1.861-17.759,7.052-24.807,2.516-3.416,17.268,14.508,15.021,23.1A215.385,215.385,0,0,1,3102.628,847.4Z" transform="translate(-3025.82 -758.7)" fill="#f969ac" fill-rule="evenodd" opacity="0.35" style="mix-blend-mode: multiply;isolation: isolate"/>
                      </g>
                      <path id="Path_7191" data-name="Path 7191" d="M3070.5,747.93c-1.646,5.4-2.549,32.006.589,43.766,10.675-12.078,41.875-27.816,37.878-36.343C3104,744.76,3073.363,738.518,3070.5,747.93Z" transform="translate(-2937.754 -660.01)" fill="#ff7b7b" fill-rule="evenodd"/>
                      <path id="Path_7192" data-name="Path 7192" d="M3073.762,749.993c-1.473,4.823-1.966,28.877.114,39.271,8.2-9.8,38.278-24.746,34.634-33.162C3104.361,746.516,3076.326,741.591,3073.762,749.993Z" transform="translate(-2939.45 -660.892)" fill="#ffa698" fill-rule="evenodd"/>
                      <g id="Group_1308" data-name="Group 1308" transform="translate(124.22 29.55)">
                        <path id="Path_7193" data-name="Path 7193" d="M3102.283,716.845a52.218,52.218,0,0,0,1.988,25.572c-7.175,6.642-19.936,3.82-22.9-2.2.627-3.894,1.356-7.47,1.777-11.468Z" transform="translate(-3064.723 -679.759)" fill="#ffa698" fill-rule="evenodd"/>
                        <path id="Path_7194" data-name="Path 7194" d="M3104.846,716.845a50.021,50.021,0,0,0-.642,12.373c-2.106,8.509-18.021,14.252-19.678,7.487.452-2.614.892-5.184,1.184-7.956Z" transform="translate(-3067.287 -679.759)" fill-rule="evenodd" fill="url(#linear-gradient-19)"/>
                        <path id="Path_7195" data-name="Path 7195" d="M3087.235,657.95a28.43,28.43,0,0,0-4.656,19.469,8.371,8.371,0,0,1-.668,4.651c-3.346,7.551-3.046,9.894-1.389,15.944,1.613,5.885,1.5,8.96,3.511,10.981,2.06,2.075,5.142,2.552,7.756,2.717,5.355.337,14.55-3.2,19.9-6.118,3.962-2.166,3.809-3.648,5.482-7.4,5.594-4.864,1.97-8.415.1-8.779-5.374-1.043-6.243,5.148-9.427,6.517C3108.364,685.05,3087.632,666.685,3087.235,657.95Z" transform="translate(-3079.318 -657.95)" fill="#ffa698" fill-rule="evenodd"/>
                        <path id="Path_7196" data-name="Path 7196" d="M3114.315,664.87a27.955,27.955,0,0,0-2.278,15.112,8.369,8.369,0,0,1-.668,4.651c-3.346,7.551-3.046,9.894-1.389,15.944.724,2.639,1.1,4.713,1.477,6.38a5.02,5.02,0,0,0,6.252,1.807c2.236-.991,4.434-3.638,4.988-8.046.393-3.131,6.809-5.194,8.132-8.378,1.1-2.638-1.864-5.584-3.659-7.1C3120.884,679.916,3116.969,672.695,3114.315,664.87Z" transform="translate(-3108.775 -660.513)" fill-rule="evenodd" fill="url(#linear-gradient-20)"/>
                        <path id="Path_7197" data-name="Path 7197" d="M3098.936,657.95c3.009,13.359,20.455,23.47,20.6,37.979C3114.763,680.851,3097.84,670.53,3098.936,657.95Z" transform="translate(-3091.018 -657.95)" fill="#ff8f7f" fill-rule="evenodd"/>
                      </g>
                      <g id="Group_1309" data-name="Group 1309" transform="translate(164.612 104.532)">
                        <path id="Path_7198" data-name="Path 7198" d="M3046.907,931.881c-2.375,1.437-6.7,2.835-8.435,3.874-.9.536-7.351,4.551-10.979,6.99-3.88,2.608-4.976,6.37-7.292,10.551a26.275,26.275,0,0,0-2.611,7.58c-.248,1.763,4.23,5.151,6.133,4.73,4.322-.957,8.733-6.262,9.873-6.854,9.681-5.02,14.317-5.516,17.816-9.51,1.495-1.705,2.409-6.693,5.492-11.176l-5.937-5.373Z" transform="translate(-3017.579 -834.367)" fill-rule="evenodd" fill="url(#linear-gradient-21)"/>
                        <path id="Path_7199" data-name="Path 7199" d="M2976.588,777.832c15.678,6.555,29.089,37.241,43.327,55.543,2.816,3.619,2.878,7.2,1.39,9.863a27.328,27.328,0,0,1-2.8,5.035c-6.767,9.949-12.292,18.419-26.756,30.72a8.656,8.656,0,0,1-3.72,1.747c-.907.751-2.177,2.105-3.147,2.891,1.2-1.548-5.995-9.3-9.258-8.784.839-1.038,1.694-2.164,2.564-3.358a4.8,4.8,0,0,1,.972-3.085c6.039-8.742,11.9-20.389,19.37-28.577-12.678-10.239-20.273-17.246-30.713-29.964C2953.141,791.984,2964.633,772.834,2976.588,777.832Z" transform="translate(-2947.264 -777.025)" fill-rule="evenodd" fill="url(#linear-gradient-22)"/>
                      </g>
                    </g>
                    <g id="Group_1329" data-name="Group 1329" transform="translate(325.601 500.271)">
                      <path id="Path_7200" data-name="Path 7200" d="M3313.228,1677.974c-45.338-26.178-118.661-26.178-163.706,0-45.089,26.2-44.851,68.673.492,94.849s118.659,26.176,163.75-.024C3358.809,1746.619,3358.569,1704.15,3313.228,1677.974Z" transform="translate(-2951.014 -1304.041)" fill="#9e9bf5" fill-rule="evenodd" opacity="0.5" style="mix-blend-mode: multiply;isolation: isolate"/>
                      <g id="Group_1312" data-name="Group 1312" transform="translate(189.896 191.188)">
                        <g id="Group_1311" data-name="Group 1311" transform="translate(0 167.616)">
                          <path id="Path_7202" data-name="Path 7202" d="M3155.814,1748.473l-.175,8.949c-.042,13.519,8.878,27.057,26.734,37.367,28.476,16.437,69.448,19.054,101.556,10.658,21.2-5.528,52.955-21.406,52.955-47.536l.184-8.948Z" transform="translate(-3155.638 -1696.22)" fill="#8141e7" fill-rule="evenodd"/>
                          <path id="Path_7203" data-name="Path 7203" d="M3310.148,1680.864c-35.491-20.493-92.89-20.493-128.151,0-35.3,20.51-35.111,53.759.384,74.25s92.889,20.491,128.187-.02C3345.83,1734.6,3345.643,1701.355,3310.148,1680.864Z" transform="translate(-3155.465 -1665.494)" fill-rule="evenodd" fill="url(#linear-gradient-23)"/>
                        </g>
                        <path id="Path_7204" data-name="Path 7204" d="M3279.4,1399.313l-.021,213.49c-.005,1.661,1.09,3.324,3.283,4.59,3.5,2.019,8.53,2.341,12.474,1.309,2.6-.679,6.5-2.628,6.5-5.839l.023-213.49Z" transform="translate(-3198.156 -1399.313)" fill="#8141e7" fill-rule="evenodd"/>
                      </g>
                      <g id="Group_1314" data-name="Group 1314" transform="translate(162.495 206.981)">
                        <path id="Path_7205" data-name="Path 7205" d="M3405.35,1452.546c10.929,28.1,16.938,67.742,23.573,98.645,1.019,3.642,2.869,8.239,7.829,10.8,7.728,3.99,16.392,3.139,18.491-2.627-.184-28.913,1.6-50.248.693-66.114-1.013-17.761-7.684-44.822-14.487-55.169C3436.414,1414.124,3393.7,1423.3,3405.35,1452.546Z" transform="translate(-3403.344 -1424.394)" fill-rule="evenodd" fill="url(#linear-gradient-24)"/>
                        <path id="Path_7206" data-name="Path 7206" d="M3445.96,1449.827c.366,1.243.736,2.363,1.112,3.328l.457,1.191.1.258c1.834,4.854,3.526,10.033,5.107,15.434l.074.252.375,1.3.116.409.261.922c7.193,25.507,12.214,55.819,17.416,80.048,2.723-36.365-3.246-72.715-12.922-104.149a119.487,119.487,0,0,1,.6-22.777C3449.67,1428.832,3442.507,1437.177,3445.96,1449.827Z" transform="translate(-3445.067 -1425.004)" fill="#1e2353" fill-rule="evenodd" opacity="0.3" style="mix-blend-mode: multiply;isolation: isolate"/>
                        <g id="Group_1313" data-name="Group 1313" transform="translate(1.847 119.969)">
                          <path id="Path_7207" data-name="Path 7207" d="M3417.822,1648.879c5.021,4.909,8.053,1.752,10.14,10.653,5.45,8.339,10.467,10.883,15,9.949,5.762-1.185,10.259-3.523,11.1-9.923.974-10.695,1.191-12.7-1.609-20.572l-.772-.513a2.169,2.169,0,0,0-2.3-.691c-5.021,1.2-6.553,4.293-8.369,6.029-3.91,3.736-7.674.744-9.341-3.581l-.014-.048-.033-.118-.011-.041-.056-.212-.019-.077-.069-.283-.008-.042-.06-.268-.02-.09,0-.024-.013-.073-.03-.143v-.008l-.027-.146-.074-.419-.065-.413-.009-.062c-.036-.253-.069-.508-.1-.765l-.01-.092-.032-.308-.006-.059-.006-.064-.016-.18-.008-.07-.017-.2-.038-.49-.008-.117-.008-.111-.025-.394-.016-.292-.02-.4c.03-.225.062-.446.105-.662a11.856,11.856,0,0,0-.24-3.768q-.021-.63-.052-1.252c-5.473-3.059-13.719-11.391-19.573-12.979-4.192-1.138-6.548,4.823-6.709,7.619C3403.993,1629.863,3412.427,1642.992,3417.822,1648.879Z" transform="translate(-3404.364 -1615.097)" fill="#fff" fill-rule="evenodd"/>
                          <path id="Path_7208" data-name="Path 7208" d="M3406.829,1633.124c.25,6.068-.221,12.733,4.246,16.272,3.9,3.087,10.636,4.276,14.732-1.9,1.724-2.6,1.535-7.089,2.157-12.619C3427.984,1638.939,3406.564,1637.338,3406.829,1633.124Z" transform="translate(-3379.156 -1621.655)" fill="#ffa495" fill-rule="evenodd"/>
                          <path id="Path_7209" data-name="Path 7209" d="M3415.676,1646.114c5.021,4.909,8.054,1.752,10.14,10.653,5.451,8.339,10.467,10.882,15.006,9.949,5.761-1.184,10.258-3.522,11.095-9.922.974-10.695,1.191-12.7-1.609-20.572l-.771-.513a2.169,2.169,0,0,0-2.3-.691c-5.021,1.2-6.554,4.294-8.37,6.029-3.91,3.736-7.673.744-9.341-3.582l-.013-.047-.033-.118-.011-.041-.057-.212-.018-.077-.068-.283-.01-.042-.059-.267-.02-.091,0-.023-.014-.074-.03-.144v-.007l-.026-.146-.074-.419-.065-.413-.009-.062q-.055-.379-.1-.766l-.01-.092-.033-.307-.006-.058-.006-.064-.017-.18-.008-.07-.016-.2-.041-.49-.008-.118-.007-.11-.025-.394-.017-.292-.02-.4c.029-.225.063-.445.105-.662a11.847,11.847,0,0,0-.241-3.768q-.022-.63-.052-1.252c-5.472-3.059-13.535-9.058-19.388-10.647-4.193-1.138-6.733,2.49-6.893,5.287C3401.846,1627.1,3410.281,1640.228,3415.676,1646.114Z" transform="translate(-3400.868 -1614.91)" fill="#193161" fill-rule="evenodd"/>
                          <path id="Path_7210" data-name="Path 7210" d="M3479.541,1616.689c-1.48,1.66-4.77.576-6.344,4.242-.085-2.416,2.383-5.874,4.977-5.874C3478.675,1615.056,3480.268,1616.027,3479.541,1616.689Z" transform="translate(-3472.711 -1614.964)" fill="#fff" fill-rule="evenodd"/>
                          <path id="Path_7211" data-name="Path 7211" d="M3404.184,1616.751q.594,2.877,1.193,5.669c1.019,3.64,2.869,8.238,7.83,10.8,7.727,3.99,16.392,3.138,18.49-2.627-.016-2.5.413-4.949.422-7.339C3427.834,1628.545,3413.233,1631.72,3404.184,1616.751Z" transform="translate(-3381.646 -1615.592)" fill-rule="evenodd" fill="url(#linear-gradient-25)"/>
                        </g>
                      </g>
                      <path id="Path_7212" data-name="Path 7212" d="M3243.312,1411.061c24.3-6.771,70.731,19.106,114.6,66.054,39.612,42.394-111.713,86.989-141.771,75.476-28.572-10.946-101.045-47.2-94.947-62.487C3133.1,1460.256,3199.347,1423.312,3243.312,1411.061Z" transform="translate(-2971.235 -1212.081)" fill="#161d5c" fill-rule="evenodd"/>
                      <g id="Group_1328" data-name="Group 1328" transform="translate(0 0)">
                        <path id="Path_7213" data-name="Path 7213" d="M3308.915,1417.809c21.641.713,45.972-.073,65.292,7.031,18.04,6.633,15.177,32.672-1.239,47.646-14.392,13.129-38.752,16.98-74.667,2.239-11.167-4.583-21.839-8.82-38.559-10.739-16.087-1.847-26.552,1.431-35.4-13.729-6.268-10.742-4.32-23.436,10.521-28.26C3256.615,1414.921,3286.636,1417.076,3308.915,1417.809Z" transform="translate(-3056.375 -1214.646)" fill-rule="evenodd" fill="url(#linear-gradient-26)"/>
                        <g id="Group_1317" data-name="Group 1317" transform="translate(0 213.146)">
                          <g id="Group_1316" data-name="Group 1316" transform="translate(0 119.188)">
                            <path id="Path_7214" data-name="Path 7214" d="M3635.474,1623.458a199.18,199.18,0,0,1-10.505,17.344c-3.507,5.15,3.892,13.589,8.844,16.3,5,2.732,12.837,2.775,16.269-4.994,1.331-3.013,1.788-7.067,3.207-10.862C3650.8,1645.281,3639.8,1633.343,3635.474,1623.458Z" transform="translate(-3576.929 -1623.458)" fill="#ffa495" fill-rule="evenodd"/>
                            <g id="Group_1315" data-name="Group 1315" transform="translate(0 10.039)">
                              <path id="Path_7215" data-name="Path 7215" d="M3693.077,1663.39c-2.526-.633-17.628,4.814-18.336-14.282-10.846,2.664-28.353-5.863-38.192-5.744-1.753.02-4.725-1.94-5.626-.946-2.826,3.116-5.987,8.021-1.836,12.644,3.053,3.4,10.066,8.58,14.764,11.551,4.981,3.154,13.573,8.29,19.571,10.679,6.644,2.645,9.685,3.8,11.81,6.379,3.264,2.7,6.89,4.358,9.092,4.5,4.708.311,10.609-1.145,14.21-5.772,1.15-1.479,2.818-8.7,2.992-13.6.138-3.859-.922-8.534-1.641-12.838Z" transform="translate(-3627.087 -1640.413)" fill="#fff" fill-rule="evenodd"/>
                              <path id="Path_7216" data-name="Path 7216" d="M3668.773,1645.661c-5.965.354-21.161-4.244-31.1-5.676-4.273-.615-8.03-1.5-10.859,1.861-2.6,3.095-2.339,6.314,1.091,10.135a70.919,70.919,0,0,0,13.254,10.711c4.983,3.154,13.573,8.291,19.571,10.679,6.643,2.645,9.685,3.8,11.81,6.38,3.263,2.694,6.889,4.358,9.092,4.5a17.367,17.367,0,0,0,14.333-6.312c1.152-1.48,2.7-8.164,2.87-13.06.1-2.732.465-6.78.3-9.206-.27-3.974-1.917-4.57-3.809-4.028-3.523,1.01-5.409,3.841-7.181,6.114a7.371,7.371,0,0,1-5.178,3.09c-4.012.329-6.955-2.536-8.439-6.253a27.2,27.2,0,0,1-.876-8.029q.07-.381.16-.751c.728-6.59-2.525-6.74-2.358-5.278C3671.6,1641.886,3670.766,1644.738,3668.773,1645.661Z" transform="translate(-3623.447 -1639.4)" fill="#193161" fill-rule="evenodd"/>
                              <path id="Path_7217" data-name="Path 7217" d="M3740.782,1641.636c-.49,2.5-3.853-.031-4.959,6.32-2.125-3,1.286-7.009,3.706-7.721C3740.08,1640.071,3741.289,1639.782,3740.782,1641.636Z" transform="translate(-3734.503 -1639.664)" fill="#fff" fill-rule="evenodd"/>
                            </g>
                          </g>
                          <path id="Path_7218" data-name="Path 7218" d="M3324.014,1450.221c-17.367,29.635-49.531,73.9-67.477,100.408-4.579,8.6,3.173,21.887,17.4,23.8,20.356-24.276,44.059-38.008,64.168-68.036,3.805-5.683,10.823-17.624,15.24-26.236,5.492.666,12.92,1.819,20.967,3.147,16.6,2.738,30.343,6.613,41.225,11.835,35,16.8,59.543,14.361,74.671,2.086,17.255-14,21.62-39.828,3.994-47.494-18.875-8.209-40.418-9.953-61.978-11.916-19.7-1.792-59.062-5.606-83.137-2.389-1.88.253-3.669.547-5.348.889-6.414,1.121-10.774,2.709-15.549,7.706A18.469,18.469,0,0,0,3324.014,1450.221Z" transform="translate(-3196.853 -1434.183)" fill-rule="evenodd" fill="url(#linear-gradient-27)"/>
                          <path id="Path_7219" data-name="Path 7219" d="M3618.778,1610.845c-1.03,1.709-4.785,7.192-5.763,8.834-2.674,7.15,6.917,19.415,21.231,20.509,1.082-1.452,5.065-5.7,6.178-7.1C3627.5,1629.439,3619.329,1622.2,3618.778,1610.845Z" transform="translate(-3556.83 -1499.6)" fill-rule="evenodd" fill="url(#linear-gradient-28)"/>
                        </g>
                        <g id="Group_1327" data-name="Group 1327" transform="translate(161.886 0)">
                          <g id="Group_1321" data-name="Group 1321" transform="translate(0 38.455)">
                            <g id="Group_1320" data-name="Group 1320">
                              <g id="Group_1319" data-name="Group 1319" transform="translate(70.524 19.928)">
                                <g id="Group_1318" data-name="Group 1318" transform="translate(0 0)">
                                  <path id="Path_7220" data-name="Path 7220" d="M3350.346,1213.321c-3.754-6.47-7.547-11.912-11.691-17.728-3.392-4.761-4.547-4.642-9.8-6.131-5.788-1.638-7.018-1.226-12.181.317-4.489,1.342-8.255,4.52-9.373,6.537-3.562,6.42,11.271,7.818,12.549,8.386,2.416,4.681,3.079,8.339,7.4,10.983,7.15,4.379,10.044,4.536,12.7,9.764Z" transform="translate(-3306.584 -1188.412)" fill="#ffa698" fill-rule="evenodd"/>
                                  <path id="Path_7221" data-name="Path 7221" d="M3340.726,1207.471c-4.6-5.376-4.882-6.62-10.887-11.564q-.368-.142-.718-.263l-5.137.289c-2.544,2.656-7.012,5.3-9.93,2.308-.127.176-.25.355-.365.536-2.115,3.364.019,7.735,1.969,8.033,4.717.715,8.407-.321,10.416.571,2.416,4.682,3.079,8.339,7.4,10.983,7.15,4.379,10.044,4.536,12.7,9.764l6.584-7.675Z" transform="translate(-3312.812 -1191.09)" fill="#ff9281" fill-rule="evenodd"/>
                                </g>
                                <path id="Path_7222" data-name="Path 7222" d="M3253.57,1291.863c-4.646-6.56-29.589-32.875-35.735-43.67a17.548,17.548,0,0,1-1.314-6.057l-3.352-4.329c.632-5.176,6.282-11.152,11.331-11.827l3.622,2.956a18.176,18.176,0,0,1,8.5,1.949c16.791,9.825,47,37.642,46.847,57.64C3283.362,1302.372,3260.037,1297.7,3253.57,1291.863Z" transform="translate(-3180.779 -1202.324)" fill-rule="evenodd" fill="url(#linear-gradient-29)"/>
                              </g>
                              <path id="Path_7223" data-name="Path 7223" d="M3376.861,1156.766l43.8,69.8-71.124,17.535-43.8-69.8Z" transform="translate(-3305.739 -1156.766)" fill-rule="evenodd" fill="url(#linear-gradient-30)"/>
                              <path id="Path_7224" data-name="Path 7224" d="M3334.621,1221.8c-9.984.969-8.4-4.78-11.923-11.393-1.763-.825-3.1-2.319-4.783-3.8-6.834-1.154-7.7-4.294-6.832-7.573,2.3.038,6.853.043,8.811.271,9.409,4.005,16.4,4.307,20.47,14.678C3341.845,1217.746,3337.582,1217.131,3334.621,1221.8Z" transform="translate(-3228.939 -1172.417)" fill="#ffa698" fill-rule="evenodd"/>
                            </g>
                            <path id="Path_7225" data-name="Path 7225" d="M3366.73,1245.977a1.894,1.894,0,0,1-3.61,1.149,80.35,80.35,0,0,1-3.313-21.29c.033-5.511,1.174-10.224,4.373-12.012,5.338-2.983,8.794-.753,12.282,1.5.618.39,1.238.792,1.756,1.089a8.535,8.535,0,0,0,3.618,1.292,2.983,2.983,0,0,0,2.492-1,7.957,7.957,0,0,0,1.616-3.555,22.432,22.432,0,0,0,0-8.881c-.293-1.463-.642-2.924-.986-4.37-1.9-7.983-3.722-15.632,3.437-18.619a1.9,1.9,0,0,1,1.454,3.5c-4.185,1.745-2.73,7.859-1.212,14.238.361,1.513.726,3.04,1.021,4.512a26.37,26.37,0,0,1-.024,10.461,11.619,11.619,0,0,1-2.508,5.259,6.606,6.606,0,0,1-5.514,2.227,12.153,12.153,0,0,1-5.276-1.785c-.722-.416-1.32-.8-1.917-1.189-2.524-1.638-5.028-3.254-8.383-1.379-1.779,1-2.42,4.493-2.446,8.739A75.94,75.94,0,0,0,3366.73,1245.977Z" transform="translate(-3310.143 -1165.79)" fill="#fff" fill-rule="evenodd"/>
                          </g>
                          <path id="Path_7226" data-name="Path 7226" d="M3256.009,1357.929l-1.392,5.994c-11.479,18.435-54.7,30.687-85.394,4.137a45.571,45.571,0,0,0,1.36-7.631c-.71-2.093-.644-5.4-.168-10.187,1.174-11.781,5.533-32.383,5.585-33.365,1.361-25.994-4.326-51.8,7.191-70.293,2.472-3.969,5.785-5.494,9.594-7.532,8.285-4.431,45.569-15.916,64.926-18.712,11.636-1.681,24.416.532,28.581,13.956,5.688,18.333-6.155,45.477-15.9,71.122C3257.653,1338.95,3263.518,1344.078,3256.009,1357.929Z" transform="translate(-3086.888 -1141.672)" fill-rule="evenodd" fill="url(#linear-gradient-31)"/>
                          <path id="Path_7227" data-name="Path 7227" d="M3287.361,1363.98c.051-.645.114-1.321.183-2.03,1.174-11.781,5.533-32.383,5.585-33.365,1.361-25.994-5.112-52.318,7.191-70.293,7.206-10.528,22.83-8.7,28.388,4.307,4.209,9.852.39,23.95-4.719,47.249-3.623,16.517-10.124,55.138-19.913,59.195C3300.749,1370.42,3295.082,1368.626,3287.361,1363.98Z" transform="translate(-3204.017 -1153.38)" fill="#3469c0" fill-rule="evenodd" opacity="0.35" style="mix-blend-mode: multiply;isolation: isolate"/>
                          <g id="Group_1325" data-name="Group 1325" transform="translate(116.856)">
                            <path id="Path_7228" data-name="Path 7228" d="M3222.4,1188.806a97.4,97.4,0,0,1-5,21.184c12.8,1.976,31.1,1.969,34.806-7.139l.761-17.924C3242.757,1172.726,3222.934,1188.936,3222.4,1188.806Z" transform="translate(-3199.272 -1127.054)" fill-rule="evenodd" fill="url(#linear-gradient-32)"/>
                            <path id="Path_7229" data-name="Path 7229" d="M3256.815,1215.576c3.545,1.868,6.334,6.4,5.181,8.751-6.624,14.608-35.624,13.756-52.385,6.79,2.3-3.839,8.51-8.735,12.056-9.194C3232.447,1225.065,3251.73,1223.98,3256.815,1215.576Z" transform="translate(-3203.665 -1140.089)" fill="#4a9ff8" fill-rule="evenodd"/>
                            <g id="Group_1324" data-name="Group 1324" transform="translate(0 0)">
                              <path id="Path_7230" data-name="Path 7230" d="M3229.968,1173.318c3.819-.9,6.014-5.54,7.393-13.435,1.169-6.69,20.015,1.766,19.7,1.325,1.708-6.084,7.619-10.686,8.957-19.147,1.87-11.833-1.038-24.318-12.771-31.339-21.427-12.823-44.763,1.419-48.057,24.767-.644,4.559,3.14,6.481,3.516,10.256.074.739-.8,1.635-1.372,3.371-.792,2.4,1.508,17.423,5.812,23.278C3214.94,1174.83,3227.093,1174.473,3229.968,1173.318Z" transform="translate(-3205.121 -1099.474)" fill="#ffa698" fill-rule="evenodd"/>
                              <path id="Path_7231" data-name="Path 7231" d="M3284.8,1183.672c.731,1.05,6.241-.14,8.275-1.069-8.605-10.834,1.353-19.587-7.47-29.9-5.3-6.2.167-13.09-5.737-16.354a37.659,37.659,0,0,0-3.024,10.419c-.644,4.559,3.14,6.481,3.517,10.256.074.739-.8,1.635-1.373,3.371C3278.2,1162.8,3280.648,1177.708,3284.8,1183.672Z" transform="translate(-3276.771 -1110.751)" fill-rule="evenodd" fill="url(#linear-gradient-33)"/>
                              <g id="Group_1322" data-name="Group 1322" transform="translate(19.373 54.916)">
                                <path id="Path_7232" data-name="Path 7232" d="M3260.7,1186.681c-1.424-2.741-.685-3.906.624-3.762,1.438.157,3.679,1.893,5.1,4.741,2.3,4.593.727,10.988-4.238,9.23,4.029-.3,3.015-5.069,1.422-7.883C3262.533,1187.1,3261.083,1185.834,3260.7,1186.681Z" transform="translate(-3259.927 -1182.908)" fill="#ffb49c" fill-rule="evenodd"/>
                                <path id="Path_7233" data-name="Path 7233" d="M3265.695,1190.583c-.841,2.23-1.065,3.519-.611,4.186.317.464,1.164.929,2.262-.46A7.245,7.245,0,0,0,3265.695,1190.583Z" transform="translate(-3262.91 -1185.75)" fill="#ff9d8e" fill-rule="evenodd"/>
                              </g>
                              <g id="Group_1323" data-name="Group 1323" transform="translate(0.864)">
                                <path id="Path_7234" data-name="Path 7234" d="M3256.034,1158.328c1.315-6.8,6.81-13.107,8.028-20.82,1.2-7.607,1.16-18.1-6.577-24.023-4.95-19.074-30.153-20.8-46.5-14.513-11.7,4.5-10.9,19.584-1.621,24.287a18,18,0,0,0,3.815,13.818c3.687,4.013,3.931,4.658,4.618,8.97.543,3.4,1.768,11.682,4.352,4.323,1.67-4.756,7.7-.365,9.117,4.4a21.891,21.891,0,0,0,4.205,8.289C3241.8,1170.952,3255.3,1162.111,3256.034,1158.328Z" transform="translate(-3202.306 -1095.699)" fill="#562e65" fill-rule="evenodd"/>
                                <path id="Path_7235" data-name="Path 7235" d="M3272.8,1110.09c-6.244-17.558-31.384-12.612-39.415-7.812-8.127,4.857-6.106,21.989,6.185,20.45C3247.954,1121.677,3257.054,1107.683,3272.8,1110.09Z" transform="translate(-3226.974 -1096.464)" fill-rule="evenodd" fill="url(#linear-gradient-34)"/>
                              </g>
                            </g>
                          </g>
                          <g id="Group_1326" data-name="Group 1326" transform="translate(8.968 81.559)">
                            <path id="Path_7236" data-name="Path 7236" d="M3441.614,1255.687l-7.575-.895-6.7-5.569-.358-10.274,5.457-3.286c5.737.693,9.093-.9,10.294.195C3444.069,1237.073,3443.4,1243.675,3441.614,1255.687Z" transform="translate(-3413.837 -1229.011)" fill="#ff9584" fill-rule="evenodd"/>
                            <path id="Path_7237" data-name="Path 7237" d="M3438.688,1272.83a27.155,27.155,0,0,1-3.33-4.809,19.845,19.845,0,0,0-4.1-13.733c-4.412-6.01-5.034-6.8-5.973-11.264a30.675,30.675,0,0,0-.954-4.131c-.963-2.322-3.622-1.671-4.537.7a11.7,11.7,0,0,0-.229,6l1.174,3.12-8.062-9.172c-1.3-2.005,14.238.074,10.757-4.657-1.974-1.093-4.715-1.282-7.97-1.545a42.3,42.3,0,0,0-7.036.07c-3.217.271-4.476,13.479-4.526,16.922a13.856,13.856,0,0,0,.793,5.505,33.256,33.256,0,0,0,7.127,10.257c5.233,4.671,9.921,4.084,13.934,12.9Z" transform="translate(-3394.549 -1228.18)" fill="#ffa698" fill-rule="evenodd"/>
                            <path id="Path_7238" data-name="Path 7238" d="M3406.989,1225.494c14.283,5.766,33.9,13.067,40.908,19.233-7.681-.072-28.1-9.242-42.422-15.194C3401.93,1228.06,3403.662,1224.15,3406.989,1225.494Z" transform="translate(-3403.517 -1225.218)" fill="#273087" fill-rule="evenodd"/>
                            <path id="Path_7239" data-name="Path 7239" d="M3427.672,1256.775c-4.412-6.01-5.034-6.8-5.973-11.264a30.677,30.677,0,0,0-.954-4.131c-.963-2.322-3.622-1.671-4.537.7a11.7,11.7,0,0,0-.229,6l1.435,5.016Z" transform="translate(-3390.962 -1230.667)" fill="#ffa698" fill-rule="evenodd"/>
                          </g>
                          <path id="Path_7240" data-name="Path 7240" d="M3332.193,1304.523c-7.55-10.009-16.072-21.05-21.179-25.574a17.574,17.574,0,0,0-5.656-2.535l-3.547-4.17c-5.2-.448-12.206,3.851-13.906,8.652l2.146,4.153a18.157,18.157,0,0,0,.158,8.715c6.074,18.206,26.593,52.789,45.963,57.532a15.638,15.638,0,0,0,7.492-.023c3.568-.767,5.131-5.492,6.588-8.514,11.53-23.921,17.141-32.5,24.587-56.564,4.91-15.865,3.264-24.908-2.349-30.346-7.03-6.81-17.536-6.853-23.181.425C3340.8,1267.246,3335.534,1288,3332.193,1304.523Z" transform="translate(-3251.602 -1153.124)" fill-rule="evenodd" fill="url(#linear-gradient-35)"/>
                        </g>
                      </g>
                      <path id="Path_7241" data-name="Path 7241" d="M3105.228,1482.793l53.885,35.621c31.865,19.856,76.376,20.693,109.117,2.213l60.8-34.471c22.147-12.556,27.784-31.811,25.308-58.066-1.864-19.778-18.056-70.9-27.857-91.135-24.843-51.3-104.137,1.543-117.4,37.7-8.22,22.406-18.19,36.915-31.966,51.021-34.489,35.314-43.124,3.983-67.254-4.513-22.474-7.912-23.851,17.577-22.786,37.18C3087.7,1469.925,3093.856,1475.384,3105.228,1482.793Z" transform="translate(-2940.217 -1177.142)" fill-rule="evenodd" fill="url(#linear-gradient-36)"/>
                      <path id="Path_7242" data-name="Path 7242" d="M3104.976,1538.691l53.885,35.621c31.865,19.855,76.376,20.693,109.117,2.213l60.8-34.471c22.147-12.556,27.784-31.811,25.308-58.066a137.541,137.541,0,0,0-3.195-17.391c-5.482,6.876-83.877,75.714-143.066,80.2-36.9,2.793-74.585-8.832-121-32.552C3087.447,1525.823,3093.6,1531.282,3104.976,1538.691Z" transform="translate(-2939.964 -1233.04)" fill-rule="evenodd" opacity="0.5" fill="url(#linear-gradient-37)" style="mix-blend-mode: multiply;isolation: isolate"/>
                    </g>
                  </g>
                  <g id="Group_451" data-name="Group 451" transform="translate(370.452 349.067)">
                    <path id="Path_5989" data-name="Path 5989" d="M1757.469,842.615l130.5-72.318,18.28,124.776L1774.48,968.094c-9.233,5.114-18.043.215-19.674-10.918l-11.1-85.112C1742.076,860.931,1748.239,847.731,1757.469,842.615Z" transform="translate(-1743.447 -743.957)" fill-rule="evenodd" opacity="0.5" fill="url(#linear-gradient-38)" style="mix-blend-mode: multiply;isolation: isolate"/>
                    <g id="Group_450" data-name="Group 450" transform="translate(5.423 0)">
                      <g id="Group_447" data-name="Group 447">
                        <path id="Path_5990" data-name="Path 5990" d="M1674,839.655l12.663,86.059-1.52.185L1681,924.288c-4.547-1.791-6.934-6.526-7.6-11.128l-10.13-77.7a.34.34,0,0,1-.006-.045,28.51,28.51,0,0,1,4.758-19.311,22.473,22.473,0,0,1,7.812-7.533l166.218-92.134a12.144,12.144,0,0,1,10.338-1.155l3.656,1.429c1.84.691,2.41,1.244,2.4,1.359C1856.716,734.158,1671.583,823.157,1674,839.655Z" transform="translate(-1663.028 -714.601)" fill="#e5edff" fill-rule="evenodd"/>
                        <path id="Path_5991" data-name="Path 5991" d="M1641.789,812.042,1808,719.907c3.694-2.047,7.311-2.336,10.333-1.158,3.874,1.508,6.772,5.427,7.609,11.138l10.129,77.7c1.49,10.167-4.114,22.205-12.54,26.876L1657.317,926.6c-8.429,4.67-16.471.2-17.961-9.967l-10.129-77.7C1627.735,828.764,1633.362,816.713,1641.789,812.042Z" transform="translate(-1624.801 -716.423)" fill="#d1e7ff" fill-rule="evenodd"/>
                      </g>
                      <g id="Group_448" data-name="Group 448" transform="translate(10.835 75.489)">
                        <path id="Path_5992" data-name="Path 5992" d="M1839.187,926.75l94.675-52.086a2.875,2.875,0,0,1,2.471-.276,3.166,3.166,0,0,1,1.819,2.662l.633,3.83a6.7,6.7,0,0,1-3,6.424l-94.677,52.086c-2.016,1.117-3.938.047-4.294-2.383l-.633-3.832A6.707,6.707,0,0,1,1839.187,926.75Z" transform="translate(-1836.126 -874.222)" fill="#fff" fill-rule="evenodd" opacity="0.5"/>
                        <path id="Path_5993" data-name="Path 5993" d="M1831.932,976.316l94.676-52.087a2.879,2.879,0,0,1,2.47-.275,3.165,3.165,0,0,1,1.819,2.662l.633,3.831a6.7,6.7,0,0,1-3,6.425l-94.677,52.086c-2.016,1.116-3.938.047-4.294-2.384l-.633-3.831A6.707,6.707,0,0,1,1831.932,976.316Z" transform="translate(-1825.442 -900.347)" fill="#fff" fill-rule="evenodd" opacity="0.5"/>
                        <path id="Path_5994" data-name="Path 5994" d="M1824.68,993.84l37.656-20.045a2.88,2.88,0,0,1,2.471-.276,3.165,3.165,0,0,1,1.819,2.664l.633,3.83a6.7,6.7,0,0,1-3,6.424l-37.657,20.045c-2.016,1.117-3.938.047-4.294-2.383l-.633-3.832A6.711,6.711,0,0,1,1824.68,993.84Z" transform="translate(-1757.739 -926.472)" fill="#fff" fill-rule="evenodd" opacity="0.5"/>
                      </g>
                      <g id="Group_449" data-name="Group 449" transform="translate(122.215 22.631)">
                        <path id="Path_5995" data-name="Path 5995" d="M1732,824.352c2.92,26.218-11.618,58.244-32.513,71.484s-40.928-3.811-43.126-23.549,1.495-27.944,7.469-40.96c3.637,2.007,7.274,4.013,10.906,5.979-3.876,8.365-6.266,13.718-4.853,26.4s14.295,23.636,27.711,15.129,22.758-29.084,20.883-45.918C1722.941,830.078,1727.486,827.214,1732,824.352Z" transform="translate(-1655.722 -795.079)" fill="#22d2fb" fill-rule="evenodd"/>
                        <path id="Path_5996" data-name="Path 5996" d="M1664.711,768.179c7.809,4.234,13.386,13.436,14.848,26.566-4.516,2.863-9.062,5.726-13.523,8.571-.937-8.417-4.5-14.352-9.524-17.074Q1660.627,777.231,1664.711,768.179Z" transform="translate(-1603.278 -765.472)" fill="#12a3eb" fill-rule="evenodd"/>
                        <path id="Path_5997" data-name="Path 5997" d="M1713.091,768.165c10.456-6.619,20.494-7.278,28.276-3.043q-4.067,9.072-8.195,18.1c-5.025-2.722-11.479-2.308-18.159,1.937s-12.426,11.527-16.195,19.824c-3.633-1.966-7.265-3.932-10.9-5.939C1693.785,786.1,1702.636,774.783,1713.091,768.165Z" transform="translate(-1679.94 -762.454)" fill="#1c8df3" fill-rule="evenodd"/>
                      </g>
                    </g>
                  </g>
                  <g id="Group_1152" data-name="Group 1152" transform="translate(362.022 589.347)">
                    <g id="Group_1471" data-name="Group 1471" transform="translate(0 13.49)">
                      <path id="Path_6866" data-name="Path 6866" d="M1726.639,300.556h42.751a6.87,6.87,0,0,0,6.849-6.851V234.829h-23.229a26.449,26.449,0,0,0-26.371,26.371Z" transform="translate(-1699.309 -205.106)" fill-rule="evenodd" opacity="0.5" fill="url(#linear-gradient-39)" style="mix-blend-mode: multiply;isolation: isolate"/>
                      <g id="Group_1151" data-name="Group 1151">
                        <path id="Path_6867" data-name="Path 6867" d="M1814.682,137.311h-38.038l-24.167,24.168V215.41a6.87,6.87,0,0,0,6.851,6.851h55.355a6.87,6.87,0,0,0,6.851-6.851V144.162A6.87,6.87,0,0,0,1814.682,137.311Z" transform="translate(-1752.477 -137.311)" fill-rule="evenodd" fill="url(#linear-gradient-40)"/>
                        <path id="Path_6868" data-name="Path 6868" d="M1880.613,167.941h22.105a7.917,7.917,0,0,0,7.895-7.894V137.328l-5.85-.017-24.1,24.616Z" transform="translate(-1880.613 -137.311)" fill-rule="evenodd" opacity="0.5" fill="url(#linear-gradient-41)" style="mix-blend-mode: multiply;isolation: isolate"/>
                        <path id="Path_6869" data-name="Path 6869" d="M1893.627,163.892h19.183a6.87,6.87,0,0,0,6.85-6.851v-19.73h-1.866l-24.167,24.168Z" transform="translate(-1893.627 -137.311)" fill-rule="evenodd" fill="url(#linear-gradient-42)"/>
                        <g id="Group_1150" data-name="Group 1150" transform="translate(7.454 21.309)">
                          <path id="Rectangle_451" data-name="Rectangle 451" d="M3.745,0H27.151A3.746,3.746,0,0,1,30.9,3.746v0a3.745,3.745,0,0,1-3.745,3.745H3.745A3.745,3.745,0,0,1,0,3.745v0A3.745,3.745,0,0,1,3.745,0Z" transform="translate(23.252 0)" fill="#fff"/>
                          <path id="Rectangle_452" data-name="Rectangle 452" d="M2.615,0H51.533a2.616,2.616,0,0,1,2.616,2.616v0A2.615,2.615,0,0,1,51.534,5.23H2.615A2.615,2.615,0,0,1,0,2.616v0A2.615,2.615,0,0,1,2.615,0Z" transform="translate(0 13.265)" fill="#93e599"/>
                          <path id="Rectangle_453" data-name="Rectangle 453" d="M2.615,0H51.534a2.615,2.615,0,0,1,2.615,2.615v0A2.615,2.615,0,0,1,51.534,5.23H2.616A2.616,2.616,0,0,1,0,2.615v0A2.615,2.615,0,0,1,2.615,0Z" transform="translate(0 24.884)" fill="#93e599"/>
                          <path id="Rectangle_454" data-name="Rectangle 454" d="M2.615,0H51.534a2.615,2.615,0,0,1,2.615,2.615v0A2.615,2.615,0,0,1,51.534,5.23H2.616A2.616,2.616,0,0,1,0,2.615v0A2.615,2.615,0,0,1,2.615,0Z" transform="translate(0 36.503)" fill="#93e599"/>
                          <path id="Rectangle_455" data-name="Rectangle 455" d="M2.615,0H51.532a2.616,2.616,0,0,1,2.616,2.616v0a2.615,2.615,0,0,1-2.615,2.615H2.616A2.616,2.616,0,0,1,0,2.615v0A2.615,2.615,0,0,1,2.615,0Z" transform="translate(0 48.121)" fill="#93e599"/>
                        </g>
                      </g>
                    </g>
                  </g>
                  <g id="Group_454" data-name="Group 454" transform="translate(253.265 449.473)">
                    <g id="Group_1408" data-name="Group 1408" transform="translate(-18.584 107.637)">
                      <path id="Path_5998" data-name="Path 5998" d="M2154.132,1148.432c-23.945-19.208-38.26-59.1-31.983-89.139,6.271-30.02,30.761-38.81,54.707-19.6,23.929,19.2,38.256,59.122,31.982,89.14C2202.562,1158.866,2178.063,1167.627,2154.132,1148.432Z" transform="translate(-2114.415 -1029.515)" fill-rule="evenodd" opacity="0.5" fill="url(#linear-gradient-43)" style="mix-blend-mode: multiply;isolation: isolate"/>
                      <g id="Group_453" data-name="Group 453" transform="translate(0 0.787)">
                        <path id="Path_5999" data-name="Path 5999" d="M2129.463,1038.217c4.285-4.526,15.057-7.121,21.09-7.45,7.037-.382,14.892,2.51,22.68,9.008,20.438,17.059,32.675,52.536,27.317,79.211-1.591,7.925-4.459,14.261-8.467,18.618-3.742,4.065-15.781,9.194-21.339,9.645C2137.425,1151.946,2116.854,1051.532,2129.463,1038.217Z" transform="translate(-2116.203 -1030.734)" fill="#d0e7ff" fill-rule="evenodd"/>
                        <g id="Group_452" data-name="Group 452" transform="translate(0 2.275)">
                          <path id="Path_6000" data-name="Path 6000" d="M2139.576,1139.759c-20.466-17.04-32.7-52.435-27.336-79.082s26.292-34.431,46.758-17.39,32.7,52.452,27.335,79.083C2180.968,1149.017,2160.03,1156.79,2139.576,1139.759Z" transform="translate(-2110.978 -1034.259)" fill-rule="evenodd" fill="url(#linear-gradient-44)"/>
                          <path id="Path_6001" data-name="Path 6001" d="M2181.339,1102.966l6.158,4.41-44.565,42.762-16.748-44.03,8.218,4.713,10.963,15.586Z" transform="translate(-2116.369 -1064.827)" fill="#fff" fill-rule="evenodd"/>
                        </g>
                      </g>
                    </g>
                  </g>
                  <g id="Group_459" data-name="Group 459" transform="matrix(0.899, -0.438, 0.438, 0.899, 98.651, 688.957)">
                    <path id="Path_6006" data-name="Path 6006" d="M42.276,16.2,12.775,0,0,87.2,29.838,103.58c8.31,4.6,16.238.194,17.7-9.825L54.658,42.7C56.128,32.679,50.582,20.8,42.276,16.2Z" transform="translate(45.539 21.567)" fill-rule="evenodd" opacity="0.5" fill="url(#linear-gradient-45)" style="mix-blend-mode: multiply;isolation: isolate"/>
                    <g id="Group_458" data-name="Group 458" transform="translate(0 0)">
                      <g id="Group_457" data-name="Group 457" transform="translate(0 0)">
                        <path id="Path_6007" data-name="Path 6007" d="M73.954,61.29,65.149,115.6l1.372.167,3.745-1.454c4.106-1.617,6.26-5.892,6.862-10.047l6.519-46.76a.326.326,0,0,0,.006-.041,25.741,25.741,0,0,0-4.3-17.435,20.288,20.288,0,0,0-7.053-6.8L14.8,1.66A10.968,10.968,0,0,0,5.466.618l-3.3,1.289C.5,2.532-.011,3.032,0,3.134,1.557,17.658,76.14,46.393,73.954,61.29Z" transform="translate(11.908 0)" fill="#d0e7ff" fill-rule="evenodd"/>
                        <path id="Path_6008" data-name="Path 6008" d="M80.434,33.238,22.934,1.67C19.6-.178,16.333-.439,13.6.624c-3.5,1.362-6.114,4.9-6.87,10.056L.217,57.443c-1.345,9.179,3.715,20.048,11.322,24.266l57.5,31.568c7.611,4.217,14.872.178,16.217-9l6.517-46.765C93.122,48.335,88.043,37.455,80.434,33.238Z" transform="translate(0 1.476)" fill="#fff" fill-rule="evenodd"/>
                      </g>
                      <path id="Path_6009" data-name="Path 6009" d="M54.885,16.741c-.582,3.982-3.7,5.784-6.99,3.957-3.352-1.858-5.511-6.583-4.928-10.565.58-3.953,3.685-5.68,7.037-3.823,3.29,1.824,5.461,6.476,4.881,10.43ZM36.817,52.11c.582-3.979,3.687-5.705,7.04-3.848,3.293,1.823,5.464,6.477,4.881,10.455s-3.7,5.781-6.993,3.957c-3.352-1.858-5.511-6.586-4.928-10.565ZM16.249,18.07c-.58,3.958-3.746,5.65-7.037,3.825C5.941,20.082,3.75,15.42,4.33,11.465c.583-3.982,3.719-5.771,6.989-3.957,3.292,1.824,5.513,6.583,4.93,10.561Zm34.5-16.824c-5.6-3.108-10.979-.207-11.971,6.567l-.006.5L19.24,11.39a16.557,16.557,0,0,0-7.189-8.876C6.45-.59,1.15,2.38.158,9.15c-.983,6.7,2.709,14.707,8.312,17.812,3.23,1.793,6.31,1.576,8.523-.244L32.744,49.425l-.119.364c-.991,6.77,2.792,14.75,8.393,17.855,5.539,3.071,10.9.161,11.89-6.613.98-6.7-2.767-14.764-8.309-17.837-3.985-2.208-7.8-1.356-10.059,1.671L19.621,23.12a8.9,8.9,0,0,0,.759-2.76,12.1,12.1,0,0,0,.117-3.221l18.569-3.177c1.093,4.907,4.11,9.522,8.1,11.73,5.539,3.07,10.9.135,11.894-6.639S56.286,4.316,50.747,1.245Z" transform="translate(15.486 34.985)" fill-rule="evenodd" fill="url(#linear-gradient-46)"/>
                    </g>
                  </g>
                </g>
              </g>
            </g>
          </g>
          <g id="Group_467" data-name="Group 467" transform="translate(681.148 238.403)">
            <path id="Path_6019" data-name="Path 6019" d="M1842.913,491.452,1805,508.871c-9.048,5.239-11.758,22.169-10.275,33.473l7.7,56.749c1.483,11.3,10.037,16.23,19.088,10.992l34.357-20.854-1.362-9.4Z" transform="translate(-1794.344 -437.052)" fill-rule="evenodd" opacity="0.5" fill="url(#linear-gradient-47)" style="mix-blend-mode: multiply;isolation: isolate"/>
            <g id="Group_466" data-name="Group 466" transform="translate(3.686)">
              <path id="Path_6020" data-name="Path 6020" d="M1754.512,395.288c-.5-3.8.537-6.1-1.35-8.252-1.2-1.369-4.995-3.133-6.58-3.729-3.068-1.156-6.73-.794-10.481,1.378l-108.392,63.355c-8.728,5.054-14.658,18.014-13.228,28.919l7.431,54.747c.443,3.381,1.7,7.741,4.584,10.229a17.812,17.812,0,0,0,7.908,3.915c2.482.313,3.139-1.93,5.922-3.541l108.39-63.355c8.74-5.059,14.66-18.015,13.23-28.919Z" transform="translate(-1614.267 -382.661)" fill="#d0e7ff" fill-rule="evenodd"/>
              <path id="Path_6021" data-name="Path 6021" d="M1748.634,398.764c-1.43-10.9-9.673-15.663-18.412-10.6l-108.391,63.354c-8.729,5.054-14.659,18.014-13.229,28.919l7.431,54.746c1.43,10.9,9.683,15.657,18.414,10.6l108.389-63.355c8.74-5.059,14.661-18.015,13.231-28.919Z" transform="translate(-1605.452 -384.399)" fill="#fff" fill-rule="evenodd"/>
              <path id="Path_6022" data-name="Path 6022" d="M1762.637,398.764c-1.43-10.905-9.673-15.663-18.412-10.6l-108.391,63.355c-8.728,5.055-14.659,18.015-13.229,28.919l.7,5.139a28.213,28.213,0,0,1,2.924-1.954l137.055-80.11Z" transform="translate(-1619.454 -384.399)" fill-rule="evenodd" fill="url(#linear-gradient-48)"/>
              <g id="Group_464" data-name="Group 464" transform="translate(19.232 47.467)">
                <path id="Path_6023" data-name="Path 6023" d="M1638.779,478.01c-11.039,2.526-19.518,15.671-18.938,29.361s10,22.739,21.039,20.213,19.518-15.67,18.938-29.359S1649.818,475.485,1638.779,478.01Z" transform="translate(-1533.961 -477.588)" fill="#6d6afd" fill-rule="evenodd" opacity="0.2"/>
                <path id="Path_6024" data-name="Path 6024" d="M1648.486,501.05c-5.952,1.361-10.523,8.449-10.211,15.829s5.391,12.261,11.344,10.9,10.524-8.449,10.211-15.83-5.391-12.259-11.344-10.9Zm.266,6.266c3.162-.723,5.859,1.868,6.026,5.788s-2.262,7.684-5.424,8.408-5.859-1.869-6.025-5.789S1645.59,508.039,1648.751,507.316Z" transform="translate(-1543.184 -489.204)" fill-rule="evenodd" fill="url(#linear-gradient-49)"/>
                <path id="Path_6025" data-name="Path 6025" d="M1790.72,527.8c-.381-2.91-2.577-4.146-4.9-2.753l-70.78,40.13a8.46,8.46,0,0,0-3.52,7.794l.74,5.756c.382,2.91,2.58,4.144,4.9,2.753l70.779-40.13a8.456,8.456,0,0,0,3.521-7.794Z" transform="translate(-1711.46 -501.027)" fill="#6d6afd" fill-rule="evenodd" opacity="0.2"/>
                <path id="Path_6026" data-name="Path 6026" d="M1753.481,571.5c-.225-1.719-1.522-2.448-2.9-1.625l-41.8,23.7a5,5,0,0,0-2.079,4.6l.436,3.4c.225,1.718,1.524,2.447,2.9,1.626l41.8-23.7a4.994,4.994,0,0,0,2.079-4.6Z" transform="translate(-1671.502 -523.559)" fill="#6d6afd" fill-rule="evenodd" opacity="0.2"/>
              </g>
              <g id="Group_465" data-name="Group 465" transform="translate(104.41 9.469)">
                <path id="Path_6027" data-name="Path 6027" d="M1642.281,401.689c-2.407.551-4.254,3.416-4.128,6.4s2.18,4.956,4.586,4.405,4.254-3.415,4.128-6.4S1644.686,401.139,1642.281,401.689Z" transform="translate(-1615.334 -401.597)" fill="#fff" fill-rule="evenodd"/>
                <path id="Path_6028" data-name="Path 6028" d="M1664.193,414.275c-2.407.55-4.254,3.415-4.128,6.4s2.18,4.956,4.586,4.405,4.254-3.415,4.128-6.4S1666.6,413.724,1664.193,414.275Z" transform="translate(-1648.203 -407.889)" fill="#fff" fill-rule="evenodd"/>
                <path id="Path_6029" data-name="Path 6029" d="M1687.9,428.1c-2.406.55-4.254,3.415-4.127,6.4s2.179,4.956,4.586,4.406,4.254-3.416,4.128-6.4S1690.308,427.547,1687.9,428.1Z" transform="translate(-1683.769 -414.8)" fill="#fff" fill-rule="evenodd"/>
              </g>
            </g>
          </g>
          <g id="Group_456" data-name="Group 456" transform="translate(696.405 406.745)">
            <path id="Path_6002" data-name="Path 6002" d="M1814.28,1198.652l121.42-67.219a7.2,7.2,0,0,1,6.18-.693c2.317.9,4.05,3.246,4.55,6.661l8.42,59.692c.891,6.08-2.46,13.279-7.5,16.072l-111.736,61.857c-1.219-.46-7.135-1.5-7.466-3.252Z" transform="translate(-1799.641 -1129.511)" fill-rule="evenodd" opacity="0.5" fill="url(#linear-gradient-50)" style="mix-blend-mode: multiply;isolation: isolate"/>
            <g id="Group_455" data-name="Group 455" transform="translate(0)">
              <path id="Path_6003" data-name="Path 6003" d="M1874.7,1214.372l9.48,61.73-.868.1-2.367-.919c-.119-.047-.235-.1-.349-.151l-.034-.013c-2.594-1.022-3.956-3.724-4.337-6.349l-8.035-56.958c0-.01,0-.019,0-.026a16.271,16.271,0,0,1,2.714-11.02,12.821,12.821,0,0,1,4.458-4.3L1998,1128.578a6.934,6.934,0,0,1,5.9-.659l2.087.815c.219.082.406.161.566.235.905.361,1.191.643,1.185.7C2006.752,1138.853,1873.316,1204.958,1874.7,1214.372Z" transform="translate(-1868.052 -1127.529)" fill="#d0e7ff" fill-rule="evenodd"/>
              <path id="Path_6004" data-name="Path 6004" d="M1836.089,1200.243l122.64-67.9a6.874,6.874,0,0,1,5.9-.661c2.21.861,3.864,3.1,4.342,6.356L1977,1195c.85,5.8-2.348,12.671-7.156,15.336L1847.2,1278.233c-4.811,2.665-9.4.113-10.25-5.687l-8.033-56.961C1828.07,1209.785,1831.28,1202.908,1836.089,1200.243Z" transform="translate(-1826.013 -1130.196)" fill-rule="evenodd" fill="url(#linear-gradient-51)"/>
              <path id="Path_6005" data-name="Path 6005" d="M1969.915,1258.439c-1.382-8.041-4.509-10.761-8.508-9.64a8.438,8.438,0,0,0-1.9.808c-3.922,2.236-7.921,8.081-8.531,17.814-.39,6.161-1.567,11.807-6.73,14.751-13.571,7.265-8.677-35.731-21.527-28.4-11.064,6.316-4.443,29.153-8.75,43.619-1.5,5.017-4.191,7.377-6.05,8.437-7.814,4.167-8.68-9.006-9.7-14.549-4.709-25.615-7.7-27.026-12.461-24.309-4.979,2.891-7.193,4.853-6.272,31.6.381,10.94,0,20.737-7.7,25.352-8.6,4.9-9.351-5.146-13.167-10.042-2.268-2.907-5.212-3.5-7.9-1.97-2.906,1.657-5.514,5.8-6.647,12.2-1.9,10.73-1.025,25.569-.461,30.749L1973,1281.617C1971.883,1273.765,1971.109,1265.391,1969.915,1258.439Z" transform="translate(-1825.988 -1213.296)" fill="#d0e7ff" fill-rule="evenodd"/>
            </g>
          </g>
        </g>
      </g>
    </g>
  </g>
</svg>
